<?xml version="1.0" encoding="UTF-8"?>
<svg version="1.1" xmlns="http://www.w3.org/2000/svg" width="1000" height="250">
<path d="M0 0 C4.3177458 0.50797009 8.03302114 1.19682779 12 3 C11.34991638 5.96822748 10.38414866 8.52692994 9.07421875 11.265625 C8.68943359 12.07386719 8.30464844 12.88210937 7.90820312 13.71484375 C7.50537109 14.55144531 7.10253906 15.38804688 6.6875 16.25 C6.29626953 17.07113281 5.90503906 17.89226563 5.50195312 18.73828125 C3.33548633 23.27241242 1.1231724 27.77835673 -1.16772461 32.25097656 C-2.3604731 34.75753278 -3.20352478 37.3450826 -4 40 C-4.66 40 -5.32 40 -6 40 C-6.144375 40.928125 -6.28875 41.85625 -6.4375 42.8125 C-7 46 -7 46 -8 49 C-8.66 49 -9.32 49 -10 49 C-10.103125 49.78375 -10.20625 50.5675 -10.3125 51.375 C-11.72785494 58.83778057 -14.25243711 65.93483828 -17 73 C-14.47440577 70.48793574 -11.9663535 67.96493404 -9.5 65.39453125 C-8.675 64.54246094 -7.85 63.69039062 -7 62.8125 C-5.7625 61.52279297 -5.7625 61.52279297 -4.5 60.20703125 C0.26112174 56.00385347 4.3713938 55.68667265 10.625 55.625 C11.93726563 55.59664062 13.24953125 55.56828125 14.6015625 55.5390625 C18 56 18 56 19.9296875 57.7265625 C23.98315873 66.33649045 19.74485967 76.72486844 16.73193359 85.09912109 C15.31044687 88.7908141 13.62062917 92.34350045 11.8203125 95.86328125 C10.69047393 98.13014544 10.69047393 98.13014544 12 101 C13.485 101.495 13.485 101.495 15 102 C15 101.34 15 100.68 15 100 C17.79870027 98.60064987 19.90498792 98.74734595 23 99 C24.875 100.5 24.875 100.5 26 102 C24.60609461 105.15719572 22.96365028 107.2812653 20.5 109.6875 C19.8915625 110.28949219 19.283125 110.89148438 18.65625 111.51171875 C15.30322734 114.5246943 11.92478462 114.28542115 7.625 114.375 C6.61566406 114.43107422 6.61566406 114.43107422 5.5859375 114.48828125 C1.85081414 114.5544547 0.31653324 114.29485979 -2.453125 111.71484375 C-5.18259307 106.92448944 -4.37305151 102.15765573 -3.1875 97 C-1.68951662 91.60936967 0.33845447 86.47575541 2.625 81.375 C3.92234136 78.19061667 4.58539434 75.39976641 5 72 C-1.29213969 73.26501618 -1.29213969 73.26501618 -7 76 C-7.70151152 77.3153341 -8.36525925 78.65117592 -9 80 C-10.33333333 81.33333333 -11.66666667 82.66666667 -13 84 C-13.495 85.485 -13.495 85.485 -14 87 C-14.99 87.495 -14.99 87.495 -16 88 C-17.10144685 89.98888201 -18.13418595 92.0162536 -19.125 94.0625 C-19.66382813 95.16722656 -20.20265625 96.27195312 -20.7578125 97.41015625 C-21.16773438 98.26480469 -21.57765625 99.11945313 -22 100 C-22.66 100 -23.32 100 -24 100 C-24.103125 100.70125 -24.20625 101.4025 -24.3125 102.125 C-25.10571772 105.44209227 -26.2659086 108.06538379 -28 111 C-29.485 111.495 -29.485 111.495 -31 112 C-31 111.34 -31 110.68 -31 110 C-33.64 109.67 -36.28 109.34 -39 109 C-39.66 107.02 -40.32 105.04 -41 103 C-41.86625 103.928125 -42.7325 104.85625 -43.625 105.8125 C-48.22477337 110.32689474 -52.08099784 112.16984305 -58.5625 112.5 C-62.4785799 112.37728905 -63.80381291 112.12694459 -67.1875 109.9375 C-69.39370285 106.36192987 -69.40488369 104.12981363 -69 100 C-71.92956815 100 -72.88500839 101.54052248 -75 103.5 C-78.77777778 107 -78.77777778 107 -81 107 C-81 107.66 -81 108.32 -81 109 C-87.72878618 112.93880167 -95.38353069 113.07238537 -103 112 C-106.87648203 109.45425061 -108.8900348 107.54076674 -110 103 C-110.3278398 98.26357766 -110.29477774 93.59057562 -109 89 C-108.67 87.783125 -108.34 86.56625 -108 85.3125 C-105.06535564 77.65627436 -98.30865177 71.93277457 -92 67 C-90.89210145 66.00413614 -89.78755727 65.0045188 -88.6875 64 C-82.63502167 58.81029396 -75.57043095 56.23413094 -68 54 C-67.35804688 53.81050781 -66.71609375 53.62101562 -66.0546875 53.42578125 C-63.62139308 52.92154343 -61.35885704 52.8675855 -58.875 52.875 C-57.57175781 52.87113281 -57.57175781 52.87113281 -56.2421875 52.8671875 C-54 53 -54 53 -52 54 C-52 56.31 -52 58.62 -52 61 C-52.94875 61.268125 -53.8975 61.53625 -54.875 61.8125 C-55.51824219 62.00070313 -56.16148437 62.18890625 -56.82421875 62.3828125 C-58.29844905 62.80099632 -59.78095169 63.19086943 -61.26953125 63.5546875 C-73.44604672 66.74143307 -83.41923455 73.18874247 -90 84 C-90.91692961 86.75078884 -91.10886083 88.35948913 -91.0625 91.1875 C-91.041875 92.445625 -91.02125 93.70375 -91 95 C-87.62902617 96.49821059 -85.79557881 97 -82 97 C-82 96.34 -82 95.68 -82 95 C-81.41992188 94.70867187 -80.83984375 94.41734375 -80.2421875 94.1171875 C-72.82825583 90.22670851 -68.0190075 86.35729271 -64.07421875 78.8671875 C-62.40920906 75.97309793 -60.33615615 73.41285589 -58.26953125 70.796875 C-56.8118334 68.91741724 -56.8118334 68.91741724 -56 66 C-54.68 66 -53.36 66 -52 66 C-52 66.66 -52 67.32 -52 68 C-51.01 68 -50.02 68 -49 68 C-49 68.66 -49 69.32 -49 70 C-48.01 70 -47.02 70 -46 70 C-46.58491076 74.7962682 -48.0291032 78.60338406 -50 83 C-51.91249895 87.64592906 -53.37227606 91.97820851 -54 97 C-50.94881861 97.26204871 -50.94881861 97.26204871 -48.5625 95.5 C-46 94 -46 94 -42 94 C-40.31301918 94.61344757 -38.64034193 95.27095914 -37 96 C-37.33 95.01 -37.66 94.02 -38 93 C-37.46114845 90.66592197 -36.82237351 88.35421365 -36.125 86.0625 C-35.75632812 84.83660156 -35.38765625 83.61070313 -35.0078125 82.34765625 C-34.67523438 81.24292969 -34.34265625 80.13820313 -34 79 C-33.65515938 77.66959636 -33.31515819 76.33774594 -33 75 C-32.34 75 -31.68 75 -31 75 C-30.9175 74.030625 -30.835 73.06125 -30.75 72.0625 C-30.19884016 68.14139145 -28.73170234 64.97150278 -27.05078125 61.4140625 C-25.58619814 58.04933254 -24.60184262 54.59540465 -23.61328125 51.06640625 C-23 49 -23 49 -22 47 C-21.34 47 -20.68 47 -20 47 C-20.33 46.01 -20.66 45.02 -21 44 C-20.25 42.046875 -20.25 42.046875 -19 39.75 C-16.77178259 35.50284526 -14.64877321 31.22291041 -12.625 26.875 C-12.33278564 26.24916016 -12.04057129 25.62332031 -11.73950195 24.97851562 C-9.1637174 19.42572525 -6.71090742 13.82098892 -4.30908203 8.19091797 C-3.04655588 5.2574232 -1.77811562 2.66717343 0 0 Z " fill="#BEE3E6" transform="translate(347,43)"/>
<path d="M0 0 C2.31861878 3.47792817 2.24272927 4.90299252 2.1875 9 C2.18105469 10.051875 2.17460938 11.10375 2.16796875 12.1875 C2 15 2 15 1 18 C0.34 18 -0.32 18 -1 18 C-1.33 19.32 -1.66 20.64 -2 22 C-3.32 22.33 -4.64 22.66 -6 23 C-6 23.66 -6 24.32 -6 25 C-12.625 29 -12.625 29 -16 29 C-16 29.66 -16 30.32 -16 31 C-26.19521708 33.97877647 -35.46546602 34.34063763 -46 34 C-46 31.69 -46 29.38 -46 27 C-41.14445387 25.52222509 -36.33108691 24.4442232 -31.33203125 23.5625 C-28.97397788 23.08715792 -28.97397788 23.08715792 -26.88671875 21.9375 C-25 21 -25 21 -22 21 C-22 20.34 -22 19.68 -22 19 C-21.34 18.360625 -20.68 17.72125 -20 17.0625 C-17.65192708 15.11987668 -17.65192708 15.11987668 -18 12 C-21.44450737 9.70366176 -23.93812283 9.45983515 -28 9 C-28 9.66 -28 10.32 -28 11 C-28.60585937 11.11214844 -29.21171875 11.22429687 -29.8359375 11.33984375 C-37.58383781 13.16358028 -42.79615954 17.01319639 -48 23 C-50.43932568 27.06502392 -50.43932568 27.06502392 -50.8125 31.625 C-50.01276473 33.96268772 -49.31927553 35.90836379 -48 38 C-45.8694191 39.08728835 -45.8694191 39.08728835 -43.4375 39.6875 C-39.05829596 40.94170404 -39.05829596 40.94170404 -38 42 C-37.69355275 44.83463708 -37.73546824 46.51718328 -39.1171875 49.0390625 C-41.63755011 51.66400447 -43.87737476 52.13807044 -47.375 53.0625 C-51.75749066 54.23620152 -55.15715324 55.60331289 -59 58 C-59.66 58 -60.32 58 -61 58 C-61 58.66 -61 59.32 -61 60 C-61.75667969 60.44085938 -62.51335938 60.88171875 -63.29296875 61.3359375 C-67.78121316 64.09494489 -69.96234969 68.22490028 -72 73 C-72.45641127 76.19958416 -72.31428187 78.75242063 -72 82 C-71.13375 80.824375 -71.13375 80.824375 -70.25 79.625 C-68.05647449 77.0658869 -66.91205554 76.41190572 -64 75 C-63.154375 74.13375 -62.30875 73.2675 -61.4375 72.375 C-59 70 -59 70 -56 70 C-56 69.34 -56 68.68 -56 68 C-55.01 68 -54.02 68 -53 68 C-52.67 67.34 -52.34 66.68 -52 66 C-48.9681144 64.11813998 -47.75482645 64 -44 64 C-44 63.34 -44 62.68 -44 62 C-43.41863281 61.85691406 -42.83726563 61.71382813 -42.23828125 61.56640625 C-40.21337506 61.05399543 -38.19955939 60.49823786 -36.1875 59.9375 C-27.41387712 58.01690594 -16.86146658 57.10842079 -9 62 C-5.66537083 64.36934178 -5.08333512 65.67221519 -4.0625 69.6875 C-3.57325572 76.44910683 -5.80580742 81.92969208 -10.125 87.0625 C-14.11997519 91.28697377 -18.29473754 95.57135914 -23 99 C-23.99 99 -24.98 99 -26 99 C-26 99.66 -26 100.32 -26 101 C-27.32064453 101.50660156 -27.32064453 101.50660156 -28.66796875 102.0234375 C-29.82941406 102.46945313 -30.99085937 102.91546875 -32.1875 103.375 C-33.91033203 104.03628906 -33.91033203 104.03628906 -35.66796875 104.7109375 C-37.64205705 105.47465279 -39.60757218 106.26238186 -41.55078125 107.1015625 C-52.11171817 110.9755904 -66.80949582 110.52911297 -77 106 C-79.97 110.95 -79.97 110.95 -83 116 C-86.73487777 115.5020163 -88.81237635 115.12508244 -92 113 C-91.46515599 107.65155992 -89.53309233 103.64203897 -87 99 C-87.66 98.01 -88.32 97.02 -89 96 C-89 95.01 -89 94.02 -89 93 C-89.66 93 -90.32 93 -91 93 C-93.07506097 83.71011167 -93.74365401 75.8162978 -89.1875 67.1875 C-87.02698634 64.03932295 -84.79734808 61.58754698 -82 59 C-81.29875 58.236875 -80.5975 57.47375 -79.875 56.6875 C-78 55 -78 55 -75 55 C-75 54.34 -75 53.68 -75 53 C-73.73308493 52.32591692 -72.46129251 51.66099503 -71.1875 51 C-70.47980469 50.62875 -69.77210937 50.2575 -69.04296875 49.875 C-67 49 -67 49 -64 49 C-64.804375 48.05125 -65.60875 47.1025 -66.4375 46.125 C-69.59567936 41.68915264 -70.32137441 37.39194837 -70 32 C-68.75 28.6875 -68.75 28.6875 -67 26 C-66.484375 25.05125 -65.96875 24.1025 -65.4375 23.125 C-64.963125 22.42375 -64.48875 21.7225 -64 21 C-63.34 21 -62.68 21 -62 21 C-61.7525 20.4225 -61.505 19.845 -61.25 19.25 C-59.80606301 16.65091342 -58.26478013 14.92163162 -56 13 C-55.01 13 -54.02 13 -53 13 C-52.67 12.01 -52.34 11.02 -52 10 C-50.46875 8.88085938 -50.46875 8.88085938 -48.5 7.84375 C-47.77683594 7.46089844 -47.05367187 7.07804687 -46.30859375 6.68359375 C-45.54675781 6.29300781 -44.78492188 5.90242188 -44 5.5 C-43.26910156 5.10941406 -42.53820312 4.71882813 -41.78515625 4.31640625 C-33.44951994 -0.03453221 -25.78496791 -2.45003371 -16.375 -2.875 C-15.56804687 -2.93429688 -14.76109375 -2.99359375 -13.9296875 -3.0546875 C-8.45281728 -3.33920024 -4.81494103 -2.68596968 0 0 Z M-66.86328125 91.64453125 C-67.23839844 92.09183594 -67.61351563 92.53914063 -68 93 C-61.32704071 97.35323981 -56.10993225 98.7046272 -48.17578125 97.70703125 C-39.61577038 95.80129697 -31.11847944 90.70272885 -25.3203125 84.08203125 C-23.89089917 81.82795638 -23.53218198 80.3861838 -23.3125 77.75 C-23.209375 76.5125 -23.10625 75.275 -23 74 C-37.65140193 63.34443496 -57.72500228 80.84893216 -66.86328125 91.64453125 Z " fill="#BDE4E6" transform="translate(114,59)"/>
<path d="M0 0 C0.845625 -0.01933594 1.69125 -0.03867187 2.5625 -0.05859375 C5.95788405 0.63245397 7.03990877 1.57585651 9 4.4375 C9.32647101 7.35177796 9.42504517 9.8515807 9.3125 12.75 C9.29630615 13.53947021 9.2801123 14.32894043 9.26342773 15.14233398 C9.20317912 17.57593884 9.10847904 20.00559725 9 22.4375 C8.95069336 23.57155273 8.95069336 23.57155273 8.90039062 24.72851562 C8.31547897 37.12202103 8.31547897 37.12202103 7 38.4375 C6.92769007 41.25306784 7.00376369 44.05542211 7.0625 46.87109375 C7 49.4375 7 49.4375 6 51.4375 C4.60449449 62.70491482 4.89742833 74.10902868 5 85.4375 C8.99179626 82.11673846 10.4256644 78.3631262 12 73.5625 C12.25563721 72.81162109 12.51127441 72.06074219 12.7746582 71.28710938 C14.74930155 65.40852345 16.48612788 59.47744843 18.13671875 53.5 C18.8565976 50.94622163 19.63785172 48.44556772 20.5 45.9375 C23.23086286 37.95269447 25.37971339 29.77330812 27.5625 21.625 C28.03917148 19.89514383 28.51825722 18.16595074 29 16.4375 C29.23460937 15.56480469 29.46921875 14.69210938 29.7109375 13.79296875 C29.95070313 12.97441406 30.19046875 12.15585938 30.4375 11.3125 C30.64246094 10.58804688 30.84742188 9.86359375 31.05859375 9.1171875 C32 7.4375 32 7.4375 34.03515625 6.6328125 C35.00775391 6.53613281 35.00775391 6.53613281 36 6.4375 C36.495 6.9325 36.495 6.9325 37 7.4375 C39.32817964 7.80510731 41.6618385 8.13991581 44 8.4375 C44.20126838 12.76477017 43.59644122 15.46936734 42 19.4375 C41.46572513 21.59597048 40.96729855 23.76354588 40.5 25.9375 C39.63054517 29.9823551 38.54191268 33.60910082 37 37.4375 C36.32777447 39.86785384 35.68405957 42.3061975 35.0625 44.75 C33.6591363 50.12633916 32.11145692 55.29931941 30 60.4375 C29.54496094 61.59121094 29.08992187 62.74492188 28.62109375 63.93359375 C19.44664086 87.19268775 19.44664086 87.19268775 15 93.4375 C13.515 93.9325 13.515 93.9325 12 94.4375 C11.87625 95.035625 11.7525 95.63375 11.625 96.25 C10.70730432 99.46193489 8.66391612 100.55326664 6 102.4375 C2.51440426 104.18029787 -1.19687395 104.00994285 -5 103.4375 C-8.77650954 100.7859082 -10.48784692 98.16253999 -11.66543579 93.72027588 C-12.42741484 88.521192 -11.75390134 83.23626559 -11.35546875 78.0234375 C-11.26622635 76.73563385 -11.17698395 75.4478302 -11.08503723 74.1210022 C-10.89642507 71.40559458 -10.69988778 68.6909273 -10.49682617 65.9765625 C-10.23726117 62.50621821 -9.99124623 59.03509212 -9.75036144 55.56340599 C-9.51907131 52.23725571 -9.28119689 48.91159865 -9.04296875 45.5859375 C-8.95436081 44.34315033 -8.86575287 43.10036316 -8.77445984 41.81991577 C-8.68799698 40.6616629 -8.60153412 39.50341003 -8.51245117 38.31005859 C-8.4375798 37.29414642 -8.36270844 36.27823425 -8.28556824 35.23153687 C-8.01452641 32.5796283 -7.5332749 30.04664123 -7 27.4375 C-6.9629721 25.7712447 -6.95240038 24.10348681 -7 22.4375 C-10.70405189 29.64295048 -14.24900544 36.86440473 -17.4375 44.3125 C-20.17516903 50.70534828 -23.16534724 56.93315941 -26.33569336 63.12255859 C-27.71818554 65.8287879 -29.02044503 68.49103274 -30.10546875 71.33203125 C-31 73.4375 -31 73.4375 -33 74.4375 C-33.41636719 75.28183594 -33.83273437 76.12617188 -34.26171875 76.99609375 C-36.37888587 81.18760887 -38.99350802 84.7588099 -41.8125 88.5 C-42.32103516 89.19416016 -42.82957031 89.88832031 -43.35351562 90.60351562 C-48.70721423 97.74856586 -54.42919667 102.55430697 -63 105.4375 C-66.0625 105.6875 -66.0625 105.6875 -68 105.4375 C-68.67119549 103.9812455 -69.33681807 102.52242133 -70 101.0625 C-70.37125 100.25039062 -70.7425 99.43828125 -71.125 98.6015625 C-72 96.4375 -72 96.4375 -72 94.4375 C-71.49210938 94.19515625 -70.98421875 93.9528125 -70.4609375 93.703125 C-55.2526386 86.29833528 -46.44231954 75.32213909 -39 60.4375 C-38.34 60.4375 -37.68 60.4375 -37 60.4375 C-36.87399414 59.85282959 -36.74798828 59.26815918 -36.61816406 58.66577148 C-36.0078857 56.46592527 -35.21961705 54.77227904 -34.109375 52.78515625 C-33.73224365 52.09800537 -33.3551123 51.41085449 -32.96655273 50.70288086 C-32.56509033 49.97593018 -32.16362793 49.24897949 -31.75 48.5 C-28.43723502 42.38797133 -25.68668082 36.33764157 -23.32421875 29.7890625 C-20.69024859 23.12255395 -17.28561901 16.80146765 -14 10.4375 C-13.67 9.7775 -13.34 9.1175 -13 8.4375 C-12.34 8.4375 -11.68 8.4375 -11 8.4375 C-10.7525 7.674375 -10.505 6.91125 -10.25 6.125 C-8.04382124 1.38171566 -5.12399767 0.00781097 0 0 Z " fill="#BFE3E6" transform="translate(661,53.5625)"/>
<path d="M0 0 C1.11310547 0.00902344 2.22621094 0.01804687 3.37304688 0.02734375 C6.10309023 0.0507776 8.8326801 0.083586 11.5625 0.125 C12.53841583 3.50817487 12.42106655 5.6907338 11.5625 9.125 C10.62148438 9.16238281 9.68046875 9.19976562 8.7109375 9.23828125 C6.84308594 9.33689453 6.84308594 9.33689453 4.9375 9.4375 C3.09285156 9.52451172 3.09285156 9.52451172 1.2109375 9.61328125 C-2.67886548 10.15885319 -5.18969063 10.91590444 -8.4375 13.125 C-9.87803273 16.32978067 -9.59347815 17.70868013 -8.36328125 20.9921875 C-7.56470703 22.48105469 -7.56470703 22.48105469 -6.75 24 C-5.91662109 25.57587891 -5.91662109 25.57587891 -5.06640625 27.18359375 C-3.79056819 29.48744522 -2.50535481 31.78256107 -1.1875 34.0625 C1.57376077 38.89470636 3.22600084 42.4852429 2.5625 48.125 C0.45540146 54.53461712 -2.76670351 57.63527909 -8.4375 61.125 C-9.0975 60.795 -9.7575 60.465 -10.4375 60.125 C-10.4375 60.785 -10.4375 61.445 -10.4375 62.125 C-27.28207186 63.15864418 -27.28207186 63.15864418 -32.1875 59.375 C-33.29799622 58.31952837 -34.38443311 57.23777687 -35.4375 56.125 C-36.4275 55.34125 -37.4175 54.5575 -38.4375 53.75 C-39.0975 53.21375 -39.7575 52.6775 -40.4375 52.125 C-40.88480469 52.59550781 -41.33210937 53.06601563 -41.79296875 53.55078125 C-42.39753906 54.17339844 -43.00210938 54.79601562 -43.625 55.4375 C-44.21667969 56.05238281 -44.80835938 56.66726562 -45.41796875 57.30078125 C-49.63883128 61.11343657 -52.78119094 62.54337908 -58.5 62.5 C-59.52222656 62.50773437 -60.54445313 62.51546875 -61.59765625 62.5234375 C-64.79561 62.07475623 -66.14097404 61.35846346 -68.4375 59.125 C-69.98631708 55.48527986 -70.4375 53.11704489 -70.4375 49.125 C-71.015 49.929375 -71.5925 50.73375 -72.1875 51.5625 C-74.41876893 54.10366739 -75.18206771 54.77620368 -78.4375 55.125 C-78.4375 55.785 -78.4375 56.445 -78.4375 57.125 C-87.09041675 61.45145837 -93.60023617 63.34154862 -103.4375 62.125 C-106.78659962 60.45616538 -108.09823613 58.58135348 -109.4375 55.125 C-111.52517077 47.44811541 -110.51122092 41.1532795 -107.1640625 34.01953125 C-104.23015147 29.1009157 -100.48487307 25.14272199 -96.4375 21.125 C-95.57125 20.196875 -94.705 19.26875 -93.8125 18.3125 C-86.26581211 11.36160326 -77.27234753 7.00349196 -67.4375 4.125 C-66.85355469 3.94582031 -66.26960937 3.76664062 -65.66796875 3.58203125 C-62.80537215 2.99547468 -60.1071212 3.03076499 -57.1875 3.0625 C-55.57101562 3.07603516 -55.57101562 3.07603516 -53.921875 3.08984375 C-53.10203125 3.10144531 -52.2821875 3.11304687 -51.4375 3.125 C-51.3125 6.5 -51.3125 6.5 -51.4375 10.125 C-52.0975 10.785 -52.7575 11.445 -53.4375 12.125 C-56.5625 11.75 -56.5625 11.75 -59.4375 11.125 C-59.4375 11.785 -59.4375 12.445 -59.4375 13.125 C-60.17613281 13.33253906 -60.91476562 13.54007813 -61.67578125 13.75390625 C-73.94099019 17.47866475 -84.11398045 23.32961987 -90.875 34.5 C-91.77196895 38.68585508 -91.58647968 42.86252595 -91.4375 47.125 C-83.93236718 46.88674182 -79.18773509 45.01209198 -73.4375 40.125 C-72.7775 39.135 -72.1175 38.145 -71.4375 37.125 C-70.7775 37.125 -70.1175 37.125 -69.4375 37.125 C-69.18742188 36.56554687 -68.93734375 36.00609375 -68.6796875 35.4296875 C-67.23728136 32.75352516 -65.49751801 30.59392748 -63.5625 28.25 C-61.23749883 25.41299496 -59.06335589 22.65143789 -57.1875 19.5 C-56.61 18.71625 -56.0325 17.9325 -55.4375 17.125 C-50.19940476 17.125 -50.19940476 17.125 -47.4375 19.125 C-46.16338849 23.10488595 -46.58139791 25.35148291 -48.25 29.125 C-48.60707031 29.95 -48.96414063 30.775 -49.33203125 31.625 C-49.69683594 32.45 -50.06164062 33.275 -50.4375 34.125 C-51.11014034 35.78926476 -51.77855168 37.45526669 -52.4375 39.125 C-53.0975 39.125 -53.7575 39.125 -54.4375 39.125 C-54.1075 40.115 -53.7775 41.105 -53.4375 42.125 C-53.39875079 43.79121616 -53.3924714 45.45894172 -53.4375 47.125 C-51.1275 46.795 -48.8175 46.465 -46.4375 46.125 C-46.4375 45.465 -46.4375 44.805 -46.4375 44.125 C-43.4375 43.125 -43.4375 43.125 -40.4375 44.125 C-39.65375 43.63 -38.87 43.135 -38.0625 42.625 C-35.4375 41.125 -35.4375 41.125 -33 41 C-30.1876606 42.23468559 -29.37045535 43.25770494 -27.5 45.625 C-25.36395344 48.29368542 -24.64518102 49.05023483 -21.3125 50.25 C-17.87993115 50.10075788 -16.81929491 49.56350432 -14.4375 47.125 C-14.17064692 44.37016698 -14.17064692 44.37016698 -14.6875 41.4375 C-14.81640625 40.44363281 -14.9453125 39.44976562 -15.078125 38.42578125 C-15.25601563 37.28689453 -15.25601563 37.28689453 -15.4375 36.125 C-16.0975 36.125 -16.7575 36.125 -17.4375 36.125 C-23.36455538 27.3005671 -27.35812755 20.17647981 -25.4375 9.125 C-24.5859375 6.8203125 -24.5859375 6.8203125 -23.4375 5.125 C-22.4475 4.795 -21.4575 4.465 -20.4375 4.125 C-20.1075 3.465 -19.7775 2.805 -19.4375 2.125 C-13.08049993 -0.42493271 -6.76333251 -0.10436003 0 0 Z " fill="#BCE2E6" transform="translate(811.4375,92.875)"/>
<path d="M0 0 C1.45947705 0.06006078 2.91779272 0.1488689 4.375 0.25 C5.59316406 0.31960937 5.59316406 0.31960937 6.8359375 0.390625 C9 1 9 1 10.3984375 2.74609375 C11.19731077 5.73927478 10.53326424 7.02183974 9.25 9.8125 C6.03701844 17.1387014 6.03701844 17.1387014 5 25 C5.33 24.319375 5.66 23.63875 6 22.9375 C8.27645368 19.59395866 10.85399713 17.42668898 13.9375 14.84765625 C16.50250379 12.54984036 18.58403203 10.01222186 20.67578125 7.28515625 C22 6 22 6 25 6 C25 5.34 25 4.68 25 4 C31.241612 1.37195284 36.29225035 -0.23591655 43 2 C45.12632101 4.20101613 45.93480245 5.53590564 46.36328125 8.5859375 C46.33814453 9.96652344 46.33814453 9.96652344 46.3125 11.375 C46.30863281 12.29023437 46.30476563 13.20546875 46.30078125 14.1484375 C45.9664208 17.31834827 45.10389592 20.01816163 44 23 C44.56847656 22.35933594 45.13695312 21.71867187 45.72265625 21.05859375 C62.70308241 2.0371147 62.70308241 2.0371147 71 1 C74.5 0.875 74.5 0.875 78 1 C78.721875 1.020625 79.44375 1.04125 80.1875 1.0625 C83.4009333 2.72462067 84.72991924 5.76647806 86 9 C87.26617946 17.38843892 82.58549035 24.93573152 78.8828125 32.1953125 C76.58750983 36.8874799 75.75180353 40.78787408 76 46 C77.94074861 45.72382467 77.94074861 45.72382467 80 45 C80.66 44.01 81.32 43.02 82 42 C82.66 42 83.32 42 84 42 C84 41.34 84 40.68 84 40 C87.71599191 39.79913557 88.77208445 39.8480563 92 42 C91.47747513 46.0601595 90.41962755 48.09689313 87.625 51.0625 C85.76846939 53.05728289 84.03232045 54.95414434 82.4609375 57.18359375 C79.6817382 60.63901534 75.29778641 60.47434717 71.125 60.9375 C64.73499507 61.33357469 64.73499507 61.33357469 61.96875 60.078125 C59.1253322 57.1355182 58.68328053 54.05801549 58.5 50.0625 C58.74574981 45.49564932 59.88116944 42.08631607 62 38 C66.79227512 28.98961308 66.79227512 28.98961308 68 19 C65.10765685 18.17361624 63.11257569 18 60 18 C60 18.66 60 19.32 60 20 C59.38125 20.0825 58.7625 20.165 58.125 20.25 C55.84645565 20.79278299 55.84645565 20.79278299 54.9375 22.875 C54.4734375 23.926875 54.4734375 23.926875 54 25 C53.53078125 25.46277344 53.0615625 25.92554687 52.578125 26.40234375 C46.31548492 32.74249175 42.87691691 43.15481519 38.94140625 51.10107422 C37.63440106 53.73745554 36.3174568 56.36882918 35 59 C34.4121875 60.175625 34.4121875 60.175625 33.8125 61.375 C33.544375 61.91125 33.27625 62.4475 33 63 C27.71862571 62.48474397 24.42778844 60.74522883 20 58 C22.53727506 47.04113111 22.53727506 47.04113111 24.5 42.625 C26.45565972 37.89882234 27.35267507 33.11455286 28.3515625 28.109375 C29 25 29 25 30 22 C29.60602665 19.36195411 29.60602665 19.36195411 29 17 C16.35878532 21.21373823 8.89355 33.7344531 3 45 C2.34 45 1.68 45 1 45 C0.87625 45.886875 0.7525 46.77375 0.625 47.6875 C-0.36299853 52.92389219 -2.58277108 57.27541621 -5 62 C-10.63470383 62.5497272 -13.38987758 60.95047835 -18 58 C-17.68806536 56.27073126 -17.37542638 54.54158956 -17.0625 52.8125 C-16.88847656 51.84957031 -16.71445312 50.88664062 -16.53515625 49.89453125 C-16.0476265 47.25760028 -15.53328895 44.6280095 -15 42 C-14.34 42 -13.68 42 -13 42 C-13.19464844 41.43796875 -13.38929688 40.8759375 -13.58984375 40.296875 C-14.09395636 37.47384438 -13.54545539 35.92363865 -12.5625 33.25 C-12.27503906 32.45078125 -11.98757813 31.6515625 -11.69140625 30.828125 C-11.46324219 30.22484375 -11.23507812 29.6215625 -11 29 C-10.34 29 -9.68 29 -9 29 C-9.29003906 28.13568359 -9.29003906 28.13568359 -9.5859375 27.25390625 C-10.07448628 24.59454167 -9.66138199 23.40484978 -8.625 20.9375 C-8.34914063 20.26589844 -8.07328125 19.59429687 -7.7890625 18.90234375 C-7.52867187 18.27457031 -7.26828125 17.64679688 -7 17 C-6.67 16.01 -6.34 15.02 -6 14 C-5.34 14 -4.68 14 -4 14 C-4.33 13.01 -4.66 12.02 -5 11 C-4.00390625 8.30078125 -4.00390625 8.30078125 -2.5625 5.3125 C-2.08941406 4.31863281 -1.61632812 3.32476562 -1.12890625 2.30078125 C-0.75636719 1.54152344 -0.38382812 0.78226562 0 0 Z " fill="#BEE3E6" transform="translate(429,93)"/>
<path d="M0 0 C0.99 0.66 1.98 1.32 3 2 C2.37510096 6.84770165 0.33154218 10.71345569 -1.875 15 C-2.22691406 15.69867188 -2.57882813 16.39734375 -2.94140625 17.1171875 C-4.44533766 20.08032374 -5.97502854 22.95932895 -7.71484375 25.79296875 C-9.28835317 28.49519617 -9.64151624 30.91703964 -10 34 C-10.66 34 -11.32 34 -12 34 C-12.226875 35.299375 -12.45375 36.59875 -12.6875 37.9375 C-13.44425791 41.36143264 -14.43039718 44.0102346 -16.25 47 C-20.32607691 53.80157311 -22.49965672 61.51615465 -25 69 C-24.071875 68.01 -24.071875 68.01 -23.125 67 C-21 65 -21 65 -19 65 C-19 64.34 -19 63.68 -19 63 C-16.96937659 61.3796636 -14.95277187 59.89898014 -12.8125 58.4375 C-11.9452832 57.8197168 -11.9452832 57.8197168 -11.06054688 57.18945312 C-7.72834972 54.88891927 -5.03885368 53.41596167 -1 53 C-0.25878906 52.92136719 0.48242188 52.84273437 1.24609375 52.76171875 C6.66887101 52.57805963 9.81469331 53.21329395 14 57 C17.38485 61.85161833 17.57277467 66.29235068 17 72 C16.25 75.4375 16.25 75.4375 15 79 C14.75507813 79.74894531 14.51015625 80.49789062 14.2578125 81.26953125 C10.06160765 93.05975284 1.16545797 104.97065269 -10 111 C-17.54953629 113.42416303 -24.50725256 113.923999 -32 111 C-31.33131783 107.38911626 -30.5471555 104.69698817 -28 102 C-24.301125 101.55744627 -20.70784854 101.71671785 -17 102 C-17 101.34 -17 100.68 -17 100 C-16.030625 99.566875 -15.06125 99.13375 -14.0625 98.6875 C-10.72268235 97.2985139 -10.72268235 97.2985139 -10 94 C-9.34 94 -8.68 94 -8 94 C-7.34 92.35 -6.68 90.7 -6 89 C-5.34 89 -4.68 89 -4 89 C-3.87625 88.13375 -3.7525 87.2675 -3.625 86.375 C-3 83 -3 83 -1.875 80.0625 C-0.8212427 76.37434944 -1.25472968 73.7263516 -2 70 C-4.31 69.34 -6.62 68.68 -9 68 C-9 68.66 -9 69.32 -9 70 C-10.03125 70.515625 -11.0625 71.03125 -12.125 71.5625 C-18.75654641 75.38633523 -22.37584501 81.21512283 -25.82421875 87.88671875 C-27 90 -27 90 -28.48046875 91.88671875 C-30.35485686 94.49351558 -31.43244647 97.14727432 -32.625 100.125 C-34.97468354 105.94936709 -34.97468354 105.94936709 -36 108 C-40.84659077 107.40895235 -44.60748167 106.02055843 -49 104 C-48.03644647 93.44191344 -48.03644647 93.44191344 -47 89 C-46.34 89 -45.68 89 -45 89 C-44.93941406 88.39671875 -44.87882812 87.7934375 -44.81640625 87.171875 C-44.73261719 86.37265625 -44.64882812 85.5734375 -44.5625 84.75 C-44.48128906 83.96109375 -44.40007812 83.1721875 -44.31640625 82.359375 C-44.02365007 80.17635361 -43.57935581 78.1226818 -43 76 C-42.34 76 -41.68 76 -41 76 C-40.896875 74.824375 -40.79375 73.64875 -40.6875 72.4375 C-40.16279142 68.22505083 -38.76634392 64.87236937 -37 61 C-35.94381237 58.01782317 -34.96343454 55.01329528 -34 52 C-33.34 52 -32.68 52 -32 52 C-32.33 51.01 -32.66 50.02 -33 49 C-31.85546875 46.07421875 -31.85546875 46.07421875 -30.1875 42.6875 C-28.14215141 38.50449492 -26.41506351 34.43555783 -25 30 C-24.36184656 28.65278717 -23.70674629 27.31252882 -23 26 C-22.34 26 -21.68 26 -21 26 C-21.33 25.01 -21.66 24.02 -22 23 C-21.41088867 21.22241211 -21.41088867 21.22241211 -20.41796875 19.27734375 C-20.06283203 18.57416016 -19.70769531 17.87097656 -19.34179688 17.14648438 C-18.96087891 16.41751953 -18.57996094 15.68855469 -18.1875 14.9375 C-17.63352539 13.83825195 -17.63352539 13.83825195 -17.06835938 12.71679688 C-14.29546523 7.29546523 -14.29546523 7.29546523 -12 5 C-11.67 4.154375 -11.34 3.30875 -11 2.4375 C-8.96381678 -2.52569659 -4.47006919 -1.01793655 0 0 Z " fill="#BDE3E6" transform="translate(167,45)"/>
<path d="M0 0 C1.13566406 -0.00257812 2.27132812 -0.00515625 3.44140625 -0.0078125 C6.4375 0.125 6.4375 0.125 9.4375 1.125 C12.20609446 5.27789169 12.3982339 9.1931777 12.4375 14.125 C11.5 17.25 11.5 17.25 10.4375 19.125 C9.7775 19.125 9.1175 19.125 8.4375 19.125 C8.19515625 19.70121094 7.9528125 20.27742188 7.703125 20.87109375 C4.29370981 26.94279919 -2.29383574 31.4180768 -8.5625 34.125 C-9.325625 34.599375 -10.08875 35.07375 -10.875 35.5625 C-15.80134251 38.42665262 -20.98239277 40.88497617 -26.5625 42.125 C-22.69400067 45.00388322 -20.41209865 46.64013187 -15.5625 46.125 C-13.24207353 45.14111543 -13.24207353 45.14111543 -11.0625 43.75 C-10.28390625 43.29882812 -9.5053125 42.84765625 -8.703125 42.3828125 C-7.99671875 41.96773437 -7.2903125 41.55265625 -6.5625 41.125 C-3.8125 39.625 -3.8125 39.625 -1.5625 39.125 C1.25 40.5 1.25 40.5 3.4375 42.125 C2.88078168 47.1354649 -0.74229648 49.61388765 -4.42578125 52.671875 C-11.36370332 58.11443911 -17.25900654 60.69752126 -26.0625 60.625 C-26.81136475 60.62290527 -27.56022949 60.62081055 -28.33178711 60.61865234 C-32.48815822 60.49926091 -35.6128404 60.18759742 -39.125 57.75 C-41.5625 55.125 -41.5625 55.125 -41.5625 53.125 C-42.2225 53.125 -42.8825 53.125 -43.5625 53.125 C-46.82405481 46.46599227 -47.48604592 41.56281468 -45.125 34.375 C-44.6113738 32.95570442 -44.09127563 31.53872138 -43.5625 30.125 C-43.2325 29.135 -42.9025 28.145 -42.5625 27.125 C-41.9025 27.125 -41.2425 27.125 -40.5625 27.125 C-40.500625 26.568125 -40.43875 26.01125 -40.375 25.4375 C-39.22073021 22.15227058 -37.06861114 20.517197 -34.5625 18.125 C-33.7375 17.114375 -32.9125 16.10375 -32.0625 15.0625 C-29.72088044 12.31109701 -27.53963739 10.16198874 -24.5625 8.125 C-23.5725 8.125 -22.5825 8.125 -21.5625 8.125 C-21.5625 7.465 -21.5625 6.805 -21.5625 6.125 C-19.81447854 5.30825204 -18.06399811 4.49676549 -16.3125 3.6875 C-15.33796875 3.23503906 -14.3634375 2.78257813 -13.359375 2.31640625 C-8.7231504 0.34147817 -5.0581966 -0.01150898 0 0 Z M-12.375 13.75 C-13.06207031 14.29398438 -13.74914062 14.83796875 -14.45703125 15.3984375 C-15.15183594 15.96820313 -15.84664062 16.53796875 -16.5625 17.125 C-17.58923828 17.94871094 -17.58923828 17.94871094 -18.63671875 18.7890625 C-21.18561319 20.86379047 -21.18561319 20.86379047 -23.5625 23.125 C-23.5625 23.785 -23.5625 24.445 -23.5625 25.125 C-24.5525 25.62 -24.5525 25.62 -25.5625 26.125 C-25.96979228 28.44656597 -26.30688677 30.7818787 -26.5625 33.125 C-18.34562371 30.96266413 -9.11097533 25.68844033 -3.5625 19.125 C-2.34459281 16.008975 -2.34459281 16.008975 -2.5625 13.125 C-3.2225 12.465 -3.8825 11.805 -4.5625 11.125 C-8.79087951 11.125 -9.28302175 11.29404987 -12.375 13.75 Z " fill="#BCE1E5" transform="translate(916.5625,94.875)"/>
<path d="M0 0 C1.11503906 0.00322266 2.23007812 0.00644531 3.37890625 0.00976562 C4.53777344 0.01814453 5.69664062 0.02652344 6.890625 0.03515625 C8.06496094 0.03966797 9.23929688 0.04417969 10.44921875 0.04882812 C13.34640572 0.06060531 16.24348954 0.07705299 19.140625 0.09765625 C18.810625 3.06765625 18.480625 6.03765625 18.140625 9.09765625 C17.18800781 9.13503906 16.23539063 9.17242187 15.25390625 9.2109375 C13.37251953 9.30955078 13.37251953 9.30955078 11.453125 9.41015625 C10.21175781 9.46816406 8.97039063 9.52617188 7.69140625 9.5859375 C3.96767746 10.12258048 1.97562129 10.6308413 -0.859375 13.09765625 C-2.06684029 16.60459727 -2.13952222 18.38149809 -0.78515625 21.84375 C-0.25277344 22.73191406 0.27960937 23.62007812 0.828125 24.53515625 C1.66150391 25.96021484 1.66150391 25.96021484 2.51171875 27.4140625 C3.04925781 28.29964844 3.58679688 29.18523437 4.140625 30.09765625 C10.26484766 40.56557677 10.26484766 40.56557677 9.953125 44.41015625 C9.685 45.29703125 9.416875 46.18390625 9.140625 47.09765625 C8.86025391 48.04705078 8.86025391 48.04705078 8.57421875 49.015625 C6.76237012 54.53399826 4.32445241 58.45401972 -1.0234375 61.21484375 C-4.65673902 62.34587149 -8.09439645 62.38933498 -11.859375 62.34765625 C-12.90738281 62.35925781 -12.90738281 62.35925781 -13.9765625 62.37109375 C-18.04566063 62.35573866 -21.19999031 61.89875965 -24.859375 60.09765625 C-24.859375 59.43765625 -24.859375 58.77765625 -24.859375 58.09765625 C-25.849375 58.09765625 -26.839375 58.09765625 -27.859375 58.09765625 C-27.859375 57.43765625 -27.859375 56.77765625 -27.859375 56.09765625 C-28.519375 56.09765625 -29.179375 56.09765625 -29.859375 56.09765625 C-32.60716384 52.51720413 -34.32906362 49.60530295 -34.859375 45.09765625 C-32.171875 42.97265625 -32.171875 42.97265625 -28.859375 41.09765625 C-25.15777995 41.66713241 -23.07026752 43.7420167 -20.359375 46.16015625 C-18.28296548 47.98487977 -16.77777337 49.13457127 -14.234375 50.28515625 C-11.54106194 50.30888748 -11.54106194 50.30888748 -9.046875 47.66015625 C-7.9640625 46.39171875 -7.9640625 46.39171875 -6.859375 45.09765625 C-8.86727725 39.65269781 -11.10157356 34.48810547 -13.921875 29.41015625 C-20.62804927 17.30840521 -20.62804927 17.30840521 -18.859375 10.09765625 C-17.796875 7.66015625 -17.796875 7.66015625 -16.859375 6.09765625 C-16.199375 6.09765625 -15.539375 6.09765625 -14.859375 6.09765625 C-14.859375 5.43765625 -14.859375 4.77765625 -14.859375 4.09765625 C-9.87132224 0.63373072 -5.98653977 -0.03054357 0 0 Z " fill="#BBE2E5" transform="translate(853.859375,92.90234375)"/>
<path d="M0 0 C1.36112895 2.72225791 1.09560957 4.90245585 1.0625 7.9375 C1.05347656 8.99839844 1.04445313 10.05929688 1.03515625 11.15234375 C1.02355469 12.09207031 1.01195312 13.03179687 1 14 C1 14.99 1 15.98 1 17 C1.42410156 16.46890625 1.84820313 15.9378125 2.28515625 15.390625 C6.78408624 9.97213349 10.63863668 7.04438906 17 4.0625 C20.37457487 3.95704454 22.9888876 5.55234981 26 7 C26 7.66 26 8.32 26 9 C26.66 9 27.32 9 28 9 C29.70246994 14.10740981 29.70087607 19.05312203 27.875 24.125 C21.68445476 33.61716937 21.68445476 33.61716937 17.25 34.625 C15 34 15 34 13 31 C12.8046875 28.73828125 12.8046875 28.73828125 12.875 26.3125 C12.89304687 25.50425781 12.91109375 24.69601563 12.9296875 23.86328125 C12.95289063 23.24839844 12.97609375 22.63351563 13 22 C10.05908413 22.18415432 10.05908413 22.18415432 7 23 C5.87309113 24.83409036 5.87309113 24.83409036 5 27 C4.31108303 28.24331072 3.61292568 29.48154022 2.90625 30.71484375 C2.51566406 31.40126953 2.12507812 32.08769531 1.72265625 32.79492188 C0.90923304 34.22036159 0.09413469 35.64484673 -0.72265625 37.06835938 C-2.75752357 40.65120333 -4.54209758 44.13718163 -6 48 C-7.03000335 50.27614731 -8.07224414 52.5467863 -9.125 54.8125 C-9.66382813 55.97394531 -10.20265625 57.13539063 -10.7578125 58.33203125 C-11.16773438 59.21246094 -11.57765625 60.09289062 -12 61 C-13.65 61 -15.3 61 -17 61 C-17 60.34 -17 59.68 -17 59 C-17.94875 58.855625 -18.8975 58.71125 -19.875 58.5625 C-23 58 -23 58 -25 57 C-24.34 54.03 -23.68 51.06 -23 48 C-22.34 48 -21.68 48 -21 48 C-20.87367188 47.27296875 -20.74734375 46.5459375 -20.6171875 45.796875 C-20.02211525 43.10021848 -19.19570187 40.78980443 -18.125 38.25 C-13.91853737 27.97813942 -13.91853737 27.97813942 -13 17 C-12.67 16.34 -12.34 15.68 -12 15 C-11.92313117 13.02133931 -11.86288758 11.04201207 -11.8125 9.0625 C-11.56640625 5.80078125 -11.56640625 5.80078125 -11 3 C-7.46226248 0.10548748 -4.50375753 -0.39739037 0 0 Z " fill="#C1E5E6" transform="translate(953,94)"/>
<path d="M0 0 C0 5.94 0 11.88 0 18 C0.33 17.01 0.66 16.02 1 15 C2.46105289 13.73375416 3.92707595 12.47155363 5.44140625 11.26953125 C7.17428157 9.90197858 7.17428157 9.90197858 9.25 7.75 C11.86518555 5.13481445 13.70634083 4.78258006 17.3125 4.625 C21.06518164 4.66125779 21.84128939 4.88096705 25 7.25 C28.28869813 11.77195993 28.20253963 15.3633016 27.50390625 20.7578125 C26.28236376 26.19320311 22.24358744 30.58442963 18 34 C13.80952381 33.80952381 13.80952381 33.80952381 12 32 C12.08984301 30.14227838 12.24611861 28.28752015 12.4375 26.4375 C12.53933594 25.42558594 12.64117187 24.41367188 12.74609375 23.37109375 C12.82988281 22.58863281 12.91367188 21.80617188 13 21 C11.72125 21.226875 10.4425 21.45375 9.125 21.6875 C8.40570313 21.81511719 7.68640625 21.94273438 6.9453125 22.07421875 C4.80519852 22.84423858 4.80519852 22.84423858 3.98046875 25.1015625 C3.65691406 26.05804688 3.33335937 27.01453125 3 28 C2.42794572 29.22073517 1.83641495 30.43244733 1.23046875 31.63671875 C0.90111328 32.29220703 0.57175781 32.94769531 0.23242188 33.62304688 C-0.11240234 34.30431641 -0.45722656 34.98558594 -0.8125 35.6875 C-1.16634766 36.39068359 -1.52019531 37.09386719 -1.88476562 37.81835938 C-2.59251043 39.22482492 -3.30099151 40.63092024 -4.01025391 42.03662109 C-5.34672749 44.68781018 -6.67374392 47.34368768 -8 50 C-8.66666667 51.33333333 -9.33333333 52.66666667 -10 54 C-10.66 54 -11.32 54 -12 54 C-12.144375 54.78375 -12.28875 55.5675 -12.4375 56.375 C-13 59 -13 59 -14 61 C-18.38889325 60.33501617 -21.9811485 58.81242323 -26 57 C-26 55.68 -26 54.36 -26 53 C-25.34 53 -24.68 53 -24 53 C-23.87625 52.13375 -23.7525 51.2675 -23.625 50.375 C-23.01941879 47.10486147 -22.11693965 44.12743101 -21 41 C-20.34 41 -19.68 41 -19 41 C-18.8453125 40.0409375 -18.8453125 40.0409375 -18.6875 39.0625 C-18.12339732 36.54967898 -17.41285661 34.44928606 -16.5 32.0625 C-14.37103608 25.8616342 -14.32306256 19.49796281 -14 13 C-13.89196071 11.08230252 -13.76913428 9.1653228 -13.625 7.25 C-13.57601562 6.47140625 -13.52703125 5.6928125 -13.4765625 4.890625 C-13 3 -13 3 -10 1 C-6.46332207 0.06929528 -3.75089076 0 0 0 Z M-3 19 C-2.67 19.66 -2.34 20.32 -2 21 C-1.67 20.34 -1.34 19.68 -1 19 C-1.66 19 -2.32 19 -3 19 Z " fill="#BDE4E7" transform="translate(210,94)"/>
<path d="M0 0 C5.74375821 3.29960578 5.74375821 3.29960578 6.9375 6.5625 C7 9 7 9 6 12 C5.34 12 4.68 12 4 12 C3.896875 12.845625 3.79375 13.69125 3.6875 14.5625 C3.07048597 17.64757016 2.12771062 20.14847232 0.828125 22.99609375 C-0.49756595 26.20401571 -1.40162994 29.52830295 -2.3515625 32.86328125 C-3 35 -3 35 -4 37 C-4.04022391 39.3329866 -4.04320247 41.66706666 -4 44 C2.12622469 41.79033067 2.12622469 41.79033067 8 39 C8 38.34 8 37.68 8 37 C10.16874252 37.50603992 11.99967627 37.99983813 14 39 C13.73727515 45.43675891 11.70163146 48.66460089 7 53 C1.35017857 57.98061928 -3.07450183 59.66507475 -10.6171875 59.50390625 C-13.3916658 58.91717232 -14.31210023 58.24522517 -16 56 C-17.364255 51.907235 -17.18423053 48.09877047 -17.1875 43.8125 C-17.19974609 42.98685547 -17.21199219 42.16121094 -17.22460938 41.31054688 C-17.23747552 35.86816569 -16.5251509 31.22650526 -15 26 C-14.34 26 -13.68 26 -13 26 C-12.773125 24.741875 -12.54625 23.48375 -12.3125 22.1875 C-10.61246575 14.55543133 -7.49741867 6.68698483 -2 1 C-1.34 0.67 -0.68 0.34 0 0 Z " fill="#BFE3E6" transform="translate(393,96)"/>
<path d="M0 0 C0.33 0.99 0.66 1.98 1 3 C1.66 3 2.32 3 3 3 C4.70246994 8.10740981 4.70087607 13.05312203 2.875 18.125 C-3.31554524 27.61716937 -3.31554524 27.61716937 -7.75 28.625 C-10 28 -10 28 -12 25 C-12.1953125 22.73828125 -12.1953125 22.73828125 -12.125 20.3125 C-12.10695313 19.50425781 -12.08890625 18.69601563 -12.0703125 17.86328125 C-12.04710937 17.24839844 -12.02390625 16.63351563 -12 16 C-14.94091587 16.18415432 -14.94091587 16.18415432 -18 17 C-19.43637698 18.95163118 -19.43637698 18.95163118 -20 21 C-20 18 -20 18 -19 15 C-20.65 14.67 -22.3 14.34 -24 14 C-22.98859953 8.63722542 -19.55543897 4.80447488 -15.15234375 1.6953125 C-9.32910994 -1.69230122 -6.38228505 -2.36380928 0 0 Z " fill="#B9DEDF" transform="translate(978,100)"/>
<path d="M0 0 C0.680625 -0.00257812 1.36125 -0.00515625 2.0625 -0.0078125 C4 0.125 4 0.125 7 1.125 C8.875 3.625 8.875 3.625 10 7.125 C9.37558478 11.33800841 7.96000365 14.86961061 5.375 18.25 C1.48935726 19.68155259 -2.04446406 19.16287457 -6 18.125 C-8.5625 16.625 -8.5625 16.625 -10 14.125 C-10.308363 11.09363492 -10.23342254 8.15949308 -10 5.125 C-9.34 4.795 -8.68 4.465 -8 4.125 C-7.67 3.135 -7.34 2.145 -7 1.125 C-4.32356043 0.23285348 -2.74615622 -0.01040211 0 0 Z " fill="#BDE3E6" transform="translate(404,72.875)"/>
<path d="M0 0 C0.99 0 1.98 0 3 0 C3.33 0.886875 3.66 1.77375 4 2.6875 C6.58170454 6.96344815 9.67924333 8.68054393 14 11 C12.10995329 13.0388259 11.12900144 13.95595073 8.4375 14.875 C5.78125 15.78125 5.78125 15.78125 4.875 18.4375 C4.58625 19.283125 4.2975 20.12875 4 21 C3.03332687 22.03225145 2.03712481 23.03855727 1 24 C0.62488281 23.37351563 0.24976563 22.74703125 -0.13671875 22.1015625 C-0.64847656 21.28429687 -1.16023437 20.46703125 -1.6875 19.625 C-2.18636719 18.81289062 -2.68523438 18.00078125 -3.19921875 17.1640625 C-5.27475035 14.66982279 -6.93697902 13.94969305 -10 13 C-9 10 -9 10 -6.125 8.1875 C-2.65863992 5.76104795 -1.57955466 3.86113361 0 0 Z " fill="#818181" transform="translate(971,211)"/>
<path d="M0 0 C1.875 1.5 1.875 1.5 3 3 C1.60609461 6.15719572 -0.03634972 8.2812653 -2.5 10.6875 C-3.41265625 11.59048828 -3.41265625 11.59048828 -4.34375 12.51171875 C-7.80238803 15.61959868 -11.21759179 15.11535637 -15.625 15.0625 C-16.33140625 15.05798828 -17.0378125 15.05347656 -17.765625 15.04882812 C-19.51045275 15.03703875 -21.255237 15.01910324 -23 15 C-23 14.01 -23 13.02 -23 12 C-19.37 12 -15.74 12 -12 12 C-12 11.01 -12 10.02 -12 9 C-11.34 8.67 -10.68 8.34 -10 8 C-10.94729537 5.84188612 -10.94729537 5.84188612 -13 4 C-12.34 3.34 -11.68 2.68 -11 2 C-10.01 2.33 -9.02 2.66 -8 3 C-8 2.34 -8 1.68 -8 1 C-5.20129973 -0.39935013 -3.09501208 -0.25265405 0 0 Z " fill="#BFE4E8" transform="translate(370,142)"/>
<path d="M0 0 C1.11503906 0.00322266 2.23007812 0.00644531 3.37890625 0.00976562 C4.53777344 0.01814453 5.69664062 0.02652344 6.890625 0.03515625 C8.06496094 0.03966797 9.23929688 0.04417969 10.44921875 0.04882812 C13.34640572 0.06060531 16.24348954 0.07705299 19.140625 0.09765625 C18.810625 3.06765625 18.480625 6.03765625 18.140625 9.09765625 C13.190625 9.09765625 8.240625 9.09765625 3.140625 9.09765625 C6.08710916 6.15117209 8.26869579 6.11442412 12.390625 6.03515625 C13.751875 6.06609375 13.751875 6.06609375 15.140625 6.09765625 C15.800625 4.77765625 16.460625 3.45765625 17.140625 2.09765625 C12.91010443 2.09138948 8.68298696 2.15100163 4.453125 2.22265625 C3.25494141 2.22007813 2.05675781 2.2175 0.82226562 2.21484375 C-5.2880578 2.14187371 -5.2880578 2.14187371 -10.7434082 4.42529297 C-12.27976349 6.18844016 -12.27976349 6.18844016 -13.859375 9.09765625 C-14.84228468 10.11445936 -15.83272287 11.12503844 -16.859375 12.09765625 C-17.519375 11.43765625 -18.179375 10.77765625 -18.859375 10.09765625 C-18.199375 8.77765625 -17.539375 7.45765625 -16.859375 6.09765625 C-16.199375 6.09765625 -15.539375 6.09765625 -14.859375 6.09765625 C-14.859375 5.43765625 -14.859375 4.77765625 -14.859375 4.09765625 C-9.87132224 0.63373072 -5.98653977 -0.03054357 0 0 Z " fill="#C9E8E9" transform="translate(853.859375,92.90234375)"/>
<path d="M0 0 C0 2.31 0 4.62 0 7 C-1.423125 7.4021875 -1.423125 7.4021875 -2.875 7.8125 C-4.2500452 8.20817627 -5.62503915 8.60403071 -7 9 C-7.85335938 9.24105469 -8.70671875 9.48210937 -9.5859375 9.73046875 C-10.46507812 9.98441406 -11.34421875 10.23835938 -12.25 10.5 C-13.08015625 10.7371875 -13.9103125 10.974375 -14.765625 11.21875 C-17.2390035 11.97950813 -17.2390035 11.97950813 -20 14 C-20.99 14 -21.98 14 -23 14 C-22.79296875 12.10546875 -22.79296875 12.10546875 -22 10 C-19.92578125 8.98828125 -19.92578125 8.98828125 -17.3125 8.3125 C-16.41273438 8.07273437 -15.51296875 7.83296875 -14.5859375 7.5859375 C-12.5525578 7.12520192 -10.49691123 6.76267019 -8.4375 6.4375 C-7.2309375 6.2209375 -7.2309375 6.2209375 -6 6 C-5.67 5.34 -5.34 4.68 -5 4 C-4.34 3.67 -3.68 3.34 -3 3 C-8.45769811 2.88861841 -13.61509359 3.08342019 -19 4 C-19 3.01 -19 2.02 -19 1 C-13.59514973 -1.33723255 -5.49061021 -2.74530511 0 0 Z " fill="#C7E8EB" transform="translate(295,97)"/>
<path d="M0 0 C0.66 0.33 1.32 0.66 2 1 C2 4.3 2 7.6 2 11 C1.01 11 0.02 11 -1 11 C-1 9.02 -1 7.04 -1 5 C-3.92956815 5 -4.88500839 6.54052248 -7 8.5 C-10.77777778 12 -10.77777778 12 -13 12 C-13.33 12.66 -13.66 13.32 -14 14 C-14 11 -14 11 -12.46875 9.39453125 C-11.8190625 8.87246094 -11.169375 8.35039062 -10.5 7.8125 C-9.8503125 7.28269531 -9.200625 6.75289062 -8.53125 6.20703125 C-8.0259375 5.80871094 -7.520625 5.41039062 -7 5 C-8.2488427 3.4166747 -8.2488427 3.4166747 -10 2 C-11.32 2 -12.64 2 -14 2 C-14 1.34 -14 0.68 -14 0 C-9.38837414 -1.53720862 -4.63509104 -1.54503035 0 0 Z " fill="#C4E6EA" transform="translate(279,138)"/>
<path d="M0 0 C3.54394067 2.6579555 5.27263592 4.66778759 6 9 C5.94921875 11.2890625 5.94921875 11.2890625 5.6875 13.625 C5.56955078 14.78902344 5.56955078 14.78902344 5.44921875 15.9765625 C5 18 5 18 3 20 C2.34 19.34 1.68 18.68 1 18 C1.375 15.875 1.375 15.875 2 14 C2.66 14 3.32 14 4 14 C3.01 12.68 2.02 11.36 1 10 C1.66 9.67 2.32 9.34 3 9 C2.5359375 8.071875 2.5359375 8.071875 2.0625 7.125 C1.375 5.75 0.6875 4.375 0 3 C-4.804859 2.66477728 -6.95655981 3.55265462 -11 6 C-13.3125 5.6875 -13.3125 5.6875 -15 5 C-10.24903653 0.09067108 -6.8190775 -1.05996023 0 0 Z " fill="#CAEAEB" transform="translate(232,99)"/>
<path d="M0 0 C16.94887526 -0.58895706 16.94887526 -0.58895706 24.375 4.6875 C26.65460943 7.93155957 27.09661428 11.12056506 27 15 C26.0625 18.5 26.0625 18.5 25 21 C24 18 23 15 22 12 C22.66 12 23.32 12 24 12 C23.65555119 9.52733235 23.65555119 9.52733235 23 7 C22.34 6.67 21.68 6.34 21 6 C21 5.34 21 4.68 21 4 C20.43490723 3.9498877 19.86981445 3.89977539 19.28759766 3.84814453 C16.73246147 3.61633728 14.17882238 3.3708421 11.625 3.125 C10.73554687 3.04636719 9.84609375 2.96773438 8.9296875 2.88671875 C8.07890625 2.80292969 7.228125 2.71914062 6.3515625 2.6328125 C5.56604004 2.55949707 4.78051758 2.48618164 3.97119141 2.41064453 C2 2 2 2 0 0 Z " fill="#CBEAEA" transform="translate(83,118)"/>
<path d="M0 0 C2 1.4375 2 1.4375 4 4 C4.35442445 7.02824418 4.23347235 9.96485939 4 13 C4.66 13 5.32 13 6 13 C6.33 14.32 6.66 15.64 7 17 C5.125 16.875 5.125 16.875 3 16 C1.40155515 12.40349908 1 9.96602757 1 6 C0.01 7.485 0.01 7.485 -1 9 C-2.32 8.67 -3.64 8.34 -5 8 C-5 7.34 -5 6.68 -5 6 C-4.01 6 -3.02 6 -2 6 C-1.34 4.02 -0.68 2.04 0 0 Z " fill="#C1E9EC" transform="translate(740,136)"/>
<path d="M0 0 C1.65 0 3.3 0 5 0 C5.125 3.375 5.125 3.375 5 7 C4.34 7.66 3.68 8.32 3 9 C-0.125 8.625 -0.125 8.625 -3 8 C-3 8.66 -3 9.32 -3 10 C-4.28745036 10.38922918 -5.58019597 10.76098036 -6.875 11.125 C-7.95394531 11.43824219 -7.95394531 11.43824219 -9.0546875 11.7578125 C-9.69664062 11.83773437 -10.33859375 11.91765625 -11 12 C-11.66 11.34 -12.32 10.68 -13 10 C-11.06767179 9.13419713 -9.12892806 8.28270059 -7.1875 7.4375 C-6.10855469 6.96183594 -5.02960937 6.48617187 -3.91796875 5.99609375 C-1 5 -1 5 2 6 C2.33 4.68 2.66 3.36 3 2 C2.01 1.34 1.02 0.68 0 0 Z " fill="#CAE6EA" transform="translate(755,96)"/>
<path d="M0 0 C0.66 0 1.32 0 2 0 C3.10844919 3.32534757 2.84454356 5.62182575 2 9 C2.99 9.33 3.98 9.66 5 10 C5.71706982 11.98248715 6.38290413 13.98415349 7 16 C7.66 16.66 8.32 17.32 9 18 C9 18.66 9 19.32 9 20 C8.01 20 7.02 20 6 20 C1.16015159 14.46538017 -0.68011976 9.09709146 -0.2109375 1.8359375 C-0.14132812 1.23007813 -0.07171875 0.62421875 0 0 Z " fill="#C3E9EA" transform="translate(786,105)"/>
<path d="M0 0 C1.65 0 3.3 0 5 0 C5.33 0.66 5.66 1.32 6 2 C5.34 2 4.68 2 4 2 C4.33 2.99 4.66 3.98 5 5 C7.64 4.67 10.28 4.34 13 4 C13.33 4.99 13.66 5.98 14 7 C13.67 7.66 13.34 8.32 13 9 C8.15340923 8.40895235 4.39251833 7.02055843 0 5 C0 3.35 0 1.7 0 0 Z " fill="#C8E9EC" transform="translate(118,144)"/>
<path d="M0 0 C0 0.66 0 1.32 0 2 C-0.99 2 -1.98 2 -3 2 C-3 2.66 -3 3.32 -3 4 C-4.33333333 5.33333333 -5.66666667 6.66666667 -7 8 C-8.36821051 9.97630407 -9.70951192 11.97209016 -11 14 C-11.66 13.67 -12.32 13.34 -13 13 C-11.39654329 8.33539866 -9.05550658 3.88058403 -6 0 C-3 -1 -3 -1 0 0 Z " fill="#C5E7EC" transform="translate(760,112)"/>
<path d="M0 0 C4.84455959 2.20207254 4.84455959 2.20207254 7 4 C7.9375 7.75 7.9375 7.75 8 11 C7.34 11 6.68 11 6 11 C6.33 12.32 6.66 13.64 7 15 C6.01 15.495 6.01 15.495 5 16 C4 14 4 14 4.1875 10.5625 C4.0946875 8.7990625 4.0946875 8.7990625 4 7 C2.05990478 5.29467677 2.05990478 5.29467677 0 4 C0 2.68 0 1.36 0 0 Z " fill="#CDEBEF" transform="translate(303,136)"/>
<path d="M0 0 C2.3125 0.125 2.3125 0.125 5 1 C6.9375 3.6875 6.9375 3.6875 8 7 C7.3125 10.3125 7.3125 10.3125 6 13 C5.01 13.495 5.01 13.495 4 14 C4.061875 13.0925 4.12375 12.185 4.1875 11.25 C3.98161105 7.68125827 3.43440242 6.52803328 1 4 C0.34 3.67 -0.32 3.34 -1 3 C-0.67 2.01 -0.34 1.02 0 0 Z " fill="#C4E9EA" transform="translate(406,73)"/>
<path d="M0 0 C2.375 0.25 2.375 0.25 5 1 C5.66 2.32 6.32 3.64 7 5 C4.03 7.97 1.06 10.94 -2 14 C-2 10.47967572 -1.29648649 9.5614657 1 7 C1.66 7 2.32 7 3 7 C3 6.01 3 5.02 3 4 C1.68 3.67 0.36 3.34 -1 3 C-0.67 2.01 -0.34 1.02 0 0 Z " fill="#CCEBEE" transform="translate(366,142)"/>
<path d="M0 0 C1.125 1.6875 1.125 1.6875 2 4 C1.37943989 5.68437744 0.70710678 7.35008418 0 9 C-0.28838457 13.15405674 -0.28838457 13.15405674 1 17 C1.04022391 19.3329866 1.04320247 21.66706666 1 24 C0.34 24 -0.32 24 -1 24 C-1.94137255 21.17588235 -2.11725382 19.47081968 -2.09765625 16.55078125 C-2.09443359 15.70322266 -2.09121094 14.85566406 -2.08789062 13.98242188 C-2.07951172 13.10134766 -2.07113281 12.22027344 -2.0625 11.3125 C-2.05798828 10.41982422 -2.05347656 9.52714844 -2.04882812 8.60742188 C-2.03704983 6.40488013 -2.02060164 4.20247401 -2 2 C-1.34 2 -0.68 2 0 2 C0 1.34 0 0.68 0 0 Z " fill="#CCEDED" transform="translate(378,128)"/>
<path d="M0 0 C0.66 0 1.32 0 2 0 C0.49829538 5.98551772 -0.94226163 11.61255621 -4 17 C-4.66 16.67 -5.32 16.34 -6 16 C-2.97545334 3.75165856 -2.97545334 3.75165856 0 0 Z " fill="#C7E7EC" transform="translate(457,128)"/>
<path d="M0 0 C0.66 0.33 1.32 0.66 2 1 C2.59896093 3.30710878 2.95654965 5.61688718 3.33984375 7.96875 C3.55769531 8.6390625 3.77554688 9.309375 4 10 C4.99 10.33 5.98 10.66 7 11 C7.33 11.99 7.66 12.98 8 14 C6.0625 13.6875 6.0625 13.6875 4 13 C3.67 12.01 3.34 11.02 3 10 C2.34 10 1.68 10 1 10 C0.01 7.03 -0.98 4.06 -2 1 C-1.34 0.67 -0.68 0.34 0 0 Z " fill="#C6EAED" transform="translate(872,138)"/>
<path d="M0 0 C-0.33 1.65 -0.66 3.3 -1 5 C-5.38889325 4.33501617 -8.9811485 2.81242323 -13 1 C-11.66961551 0.6550855 -10.33542939 0.32483418 -9 0 C-8.175 -0.20625 -7.35 -0.4125 -6.5 -0.625 C-3.95475041 -1.00678744 -2.41657419 -0.80552473 0 0 Z " fill="#C8E5EA" transform="translate(197,150)"/>
<path d="M0 0 C1.32064453 0.23396484 1.32064453 0.23396484 2.66796875 0.47265625 C3.82941406 0.66730469 4.99085937 0.86195312 6.1875 1.0625 C7.91033203 1.35833984 7.91033203 1.35833984 9.66796875 1.66015625 C12.78648366 1.97822284 14.99805783 1.80843264 18 1 C18.33 1.66 18.66 2.32 19 3 C15.69005287 4.65497356 12.00877 4.10084335 8.375 4.0625 C7.57320313 4.05798828 6.77140625 4.05347656 5.9453125 4.04882812 C3.96350994 4.03703168 1.98174567 4.01909605 0 4 C0 2.68 0 1.36 0 0 Z " fill="#CAEAE9" transform="translate(68,89)"/>
<path d="M0 0 C0.99 0 1.98 0 3 0 C3.33 1.65 3.66 3.3 4 5 C3.01 4.67 2.02 4.34 1 4 C0.59007812 4.55429688 0.18015625 5.10859375 -0.2421875 5.6796875 C-0.78101563 6.40414062 -1.31984375 7.12859375 -1.875 7.875 C-2.40867187 8.59429687 -2.94234375 9.31359375 -3.4921875 10.0546875 C-5 12 -5 12 -7 14 C-7.99 13.67 -8.98 13.34 -10 13 C-9 10 -9 10 -6.125 8.1875 C-2.65863992 5.76104795 -1.57955466 3.86113361 0 0 Z " fill="#9A9A9A" transform="translate(971,211)"/>
<path d="M0 0 C0.66 0.33 1.32 0.66 2 1 C2 6.61 2 12.22 2 18 C1.01 17.67 0.02 17.34 -1 17 C-1.18451025 5.47835991 -1.18451025 5.47835991 0 0 Z " fill="#CBF1F5" transform="translate(197,97)"/>
<path d="M0 0 C0.66 0.33 1.32 0.66 2 1 C3.21527754 4.64583263 3.22619644 7.32141069 2 11 C-0.475 10.01 -0.475 10.01 -3 9 C-2.5020163 5.26512223 -2.12508244 3.18762365 0 0 Z " fill="#B4DADE" transform="translate(25,163)"/>
<path d="M0 0 C1.32 0 2.64 0 4 0 C3.67 1.65 3.34 3.3 3 5 C1.68 4.67 0.36 4.34 -1 4 C-1 4.99 -1 5.98 -1 7 C-2.65 7.66 -4.3 8.32 -6 9 C-6.33 7.68 -6.66 6.36 -7 5 C-3.375 2 -3.375 2 0 2 C0 1.34 0 0.68 0 0 Z " fill="#B9DFE0" transform="translate(58,127)"/>
<path d="M0 0 C1.45947705 0.06006078 2.91779272 0.1488689 4.375 0.25 C5.59316406 0.31960937 5.59316406 0.31960937 6.8359375 0.390625 C9 1 9 1 10.2890625 3.046875 C10.64097656 4.01367188 10.64097656 4.01367188 11 5 C7.89448334 5 6.64738916 4.4606285 4 3 C3.01 3.99 2.02 4.98 1 6 C0.01 5.67 -0.98 5.34 -2 5 C-1.34 3.35 -0.68 1.7 0 0 Z " fill="#CAEAEB" transform="translate(429,93)"/>
<path d="M0 0 C0.66 0 1.32 0 2 0 C2.125 6.75 2.125 6.75 1 9 C1 10.32 1 11.64 1 13 C0.01 13.33 -0.98 13.66 -2 14 C-2.144375 13.236875 -2.28875 12.47375 -2.4375 11.6875 C-2.9632594 8.91827092 -2.9632594 8.91827092 -4 6 C-3.34 6 -2.68 6 -2 6 C-1.34 4.02 -0.68 2.04 0 0 Z " fill="#C9E8EC" transform="translate(388,124)"/>
<path d="M0 0 C0.99 0 1.98 0 3 0 C3 0.66 3 1.32 3 2 C3.99 2 4.98 2 6 2 C5.38461538 7.53846154 5.38461538 7.53846154 3.4375 9.875 C2.7259375 10.431875 2.7259375 10.431875 2 11 C1.4375 9.0625 1.4375 9.0625 1 7 C1.33 6.67 1.66 6.34 2 6 C1.34 5.34 0.68 4.68 0 4 C0.66 4 1.32 4 2 4 C2 3.34 2 2.68 2 2 C1.01 1.67 0.02 1.34 -1 1 C-0.67 0.67 -0.34 0.34 0 0 Z " fill="#CDE9EA" transform="translate(295,111)"/>
<path d="M0 0 C1.32 0 2.64 0 4 0 C3.835 0.598125 3.67 1.19625 3.5 1.8125 C2.8885876 4.11344336 2.8885876 4.11344336 3 7 C3 7.33 3 7.66 3 8 C0.69 7.67 -1.62 7.34 -4 7 C-2.68 4.69 -1.36 2.38 0 0 Z " fill="#B9DEE2" transform="translate(139,147)"/>
<path d="M0 0 C-0.33 0.66 -0.66 1.32 -1 2 C-2.32148827 2.37756808 -3.65835921 2.7018576 -5 3 C-5.86625 3.37125 -6.7325 3.7425 -7.625 4.125 C-8.40875 4.41375 -9.1925 4.7025 -10 5 C-10.66 4.67 -11.32 4.34 -12 4 C-12 4.66 -12 5.32 -12 6 C-12.99 5.67 -13.98 5.34 -15 5 C-15 4.34 -15 3.68 -15 3 C-3 -1 -3 -1 0 0 Z " fill="#C4E6E7" transform="translate(750,97)"/>
<path d="M0 0 C0.99 0.33 1.98 0.66 3 1 C3.02703381 2.93742341 3.04641125 4.87495479 3.0625 6.8125 C3.07410156 7.89144531 3.08570312 8.97039062 3.09765625 10.08203125 C3 13 3 13 2 16 C1.01 15.67 0.02 15.34 -1 15 C-0.67 14.01 -0.34 13.02 0 12 C0.068991 9.93854893 0.08467727 7.87498599 0.0625 5.8125 C0.05347656 4.72582031 0.04445313 3.63914062 0.03515625 2.51953125 C0.02355469 1.68808594 0.01195313 0.85664062 0 0 Z " fill="#CDEFF0" transform="translate(113,61)"/>
<path d="M0 0 C2.00753698 1.09040327 4.00588751 2.19773572 6 3.3125 C7.11375 3.92738281 8.2275 4.54226562 9.375 5.17578125 C10.24125 5.77777344 11.1075 6.37976563 12 7 C12 7.99 12 8.98 12 10 C11.34 10 10.68 10 10 10 C10 9.34 10 8.68 10 8 C9.38125 8.20625 8.7625 8.4125 8.125 8.625 C7.42375 8.74875 6.7225 8.8725 6 9 C4 7 4 7 3 4 C0.98491642 3.26676204 0.98491642 3.26676204 -1 3 C-0.67 2.01 -0.34 1.02 0 0 Z " fill="#8E8E8E" transform="translate(972,214)"/>
<path d="M0 0 C5.15171623 -0.09038099 9.91913204 0.15318867 15 1 C15 1.66 15 2.32 15 3 C10.05 3 5.1 3 0 3 C0 2.01 0 1.02 0 0 Z " fill="#CDE9EC" transform="translate(347,154)"/>
<path d="M0 0 C4.75 0.875 4.75 0.875 7 2 C7 2.66 7 3.32 7 4 C10.63 4 14.26 4 18 4 C18 4.33 18 4.66 18 5 C15.69 5 13.38 5 11 5 C11 5.66 11 6.32 11 7 C6.9986972 6.38441495 4.22175647 4.36262141 1 2 C0.67 1.34 0.34 0.68 0 0 Z " fill="#C5E6E8" transform="translate(776,148)"/>
<path d="M0 0 C0.99 0 1.98 0 3 0 C3 3.96 3 7.92 3 12 C3.66 12.33 4.32 12.66 5 13 C4.67 13.99 4.34 14.98 4 16 C0.98656045 12.67148232 0.55332456 10.18117187 0.3125 5.75 C0.24675781 4.67234375 0.18101562 3.5946875 0.11328125 2.484375 C0.07589844 1.66453125 0.03851562 0.8446875 0 0 Z " fill="#CAEEF0" transform="translate(701,136)"/>
<path d="M0 0 C1.32 0.33 2.64 0.66 4 1 C4.16435547 1.84884766 4.16435547 1.84884766 4.33203125 2.71484375 C4.49058594 3.44832031 4.64914062 4.18179688 4.8125 4.9375 C4.96332031 5.66839844 5.11414063 6.39929688 5.26953125 7.15234375 C5.51058594 7.76207031 5.75164063 8.37179688 6 9 C6.99 9.33 7.98 9.66 9 10 C9 10.33 9 10.66 9 11 C7.35 11 5.7 11 4 11 C3.32880451 9.5437455 2.66318193 8.08492133 2 6.625 C1.62875 5.81289062 1.2575 5.00078125 0.875 4.1640625 C0 2 0 2 0 0 Z " fill="#CFEDEF" transform="translate(589,148)"/>
<path d="M0 0 C0.66 0.33 1.32 0.66 2 1 C1.9175 1.9075 1.835 2.815 1.75 3.75 C1.68975201 7.10041408 1.68975201 7.10041408 4 9.375 C4.66 9.91125 5.32 10.4475 6 11 C3.69 10.67 1.38 10.34 -1 10 C-1.02689216 8.52093108 -1.04634621 7.04172517 -1.0625 5.5625 C-1.07410156 4.73878906 -1.08570313 3.91507813 -1.09765625 3.06640625 C-1 1 -1 1 0 0 Z " fill="#C4ECEF" transform="translate(291,133)"/>
<path d="M0 0 C0.66 0.33 1.32 0.66 2 1 C2.625 4.0625 2.625 4.0625 3 7 C5.64 7.33 8.28 7.66 11 8 C10.67 8.66 10.34 9.32 10 10 C6.20949594 9.70842276 3.64934335 9.45454034 0.5 7.25 C-1 5 -1 5 -0.75 2.25 C-0.5025 1.5075 -0.255 0.765 0 0 Z " fill="#C6EAEC" transform="translate(395,82)"/>
<path d="M0 0 C2.475 0.99 2.475 0.99 5 2 C4.67 2.66 4.34 3.32 4 4 C1.36 4 -1.28 4 -4 4 C-2.68 2.68 -1.36 1.36 0 0 Z M-6 4 C-4.02 4.99 -4.02 4.99 -2 6 C-3.98 6.99 -3.98 6.99 -6 8 C-6 6.68 -6 5.36 -6 4 Z " fill="#C6E5E6" transform="translate(825,134)"/>
<path d="M0 0 C1.29312675 2.5862535 0.84290464 3.76416975 0.25 6.5625 C0.09015625 7.36816406 -0.0696875 8.17382812 -0.234375 9.00390625 C-0.48703125 9.66261719 -0.7396875 10.32132813 -1 11 C-1.99 11.33 -2.98 11.66 -4 12 C-3.79375 11.2575 -3.5875 10.515 -3.375 9.75 C-2.95591249 6.67669159 -3.38050989 5.57213134 -5 3 C-3.35 2.01 -1.7 1.02 0 0 Z " fill="#C4E8EE" transform="translate(136,134)"/>
<path d="M0 0 C1.9375 0.8125 1.9375 0.8125 4 2 C5 5 5 5 4 8 C4.99 8.33 5.98 8.66 7 9 C5.1875 10.0625 5.1875 10.0625 3 11 C2.01 10.67 1.02 10.34 0 10 C0.185625 8.906875 0.37125 7.81375 0.5625 6.6875 C1.2578068 3.06375867 1.2578068 3.06375867 0 0 Z " fill="#C8EAEC" transform="translate(496,109)"/>
<path d="M0 0 C0.66 0 1.32 0 2 0 C1.67 1.65 1.34 3.3 1 5 C1.66 5.33 2.32 5.66 3 6 C3.07427838 9.34252724 3.06546953 11.8035914 2 15 C1.34 15 0.68 15 0 15 C0 12.03 0 9.06 0 6 C-0.66 6 -1.32 6 -2 6 C-1.49396008 3.83125748 -1.00016187 2.00032373 0 0 Z " fill="#B4DDDF" transform="translate(788,99)"/>
<path d="M0 0 C-0.66 1.32 -1.32 2.64 -2 4 C-4.64 4 -7.28 4 -10 4 C-10 3.01 -10 2.02 -10 1 C-3.71428571 -1.42857143 -3.71428571 -1.42857143 0 0 Z " fill="#C6E6E2" transform="translate(975,99)"/>
<path d="M0 0 C0.33 0 0.66 0 1 0 C0.53199289 4.05606165 0.12046792 7.46588679 -2 11 C-3.9375 10.625 -3.9375 10.625 -6 10 C-6.33 9.34 -6.66 8.68 -7 8 C-6.34 8 -5.68 8 -5 8 C-5 7.34 -5 6.68 -5 6 C-4.34 6 -3.68 6 -3 6 C-2.690625 5.38125 -2.38125 4.7625 -2.0625 4.125 C-1.375 2.75 -0.6875 1.375 0 0 Z " fill="#B4DFE2" transform="translate(652,73)"/>
<path d="M0 0 C0.33 0.66 0.66 1.32 1 2 C0.52949219 2.31453125 0.05898438 2.6290625 -0.42578125 2.953125 C-3.88002433 5.32747014 -6.72778504 7.39118801 -9 11 C-9.99 10.67 -10.98 10.34 -12 10 C-10.33333333 8.33333333 -8.66666667 6.66666667 -7 5 C-6.29875 4.2575 -5.5975 3.515 -4.875 2.75 C-3 1 -3 1 0 0 Z " fill="#C7EBED" transform="translate(60,136)"/>
<path d="M0 0 C0.99 0.33 1.98 0.66 3 1 C1.35 4.63 -0.3 8.26 -2 12 C-2.99 12 -3.98 12 -5 12 C-3.68938409 7.76570244 -2.05643741 3.92592596 0 0 Z " fill="#C9ECF0" transform="translate(470,133)"/>
<path d="M0 0 C4.39126513 0.09741714 7.92188617 0.30280314 11.9140625 2.36328125 C11.9140625 2.69328125 11.9140625 3.02328125 11.9140625 3.36328125 C6.3040625 3.36328125 0.6940625 3.36328125 -5.0859375 3.36328125 C-2.0859375 0.36328125 -2.0859375 0.36328125 0 0 Z " fill="#CDEDEF" transform="translate(79.0859375,127.63671875)"/>
<path d="M0 0 C0.33 0 0.66 0 1 0 C1 13 1 13 0 15 C-0.99 14.67 -1.98 14.34 -3 14 C-2.69249629 11.85344499 -2.3788634 9.70776715 -2.0625 7.5625 C-1.88847656 6.36753906 -1.71445312 5.17257813 -1.53515625 3.94140625 C-1 1 -1 1 0 0 Z " fill="#CDEEEE" transform="translate(943,99)"/>
<path d="M0 0 C2.9375 1 2.9375 1 6 3 C6.86518243 5.75878925 6.90393194 8.06992426 7 11 C6.01 11.495 6.01 11.495 5 12 C4.34 11.67 3.68 11.34 3 11 C3.020625 10.071875 3.04125 9.14375 3.0625 8.1875 C3.15769604 4.97713989 3.15769604 4.97713989 2 2 C1.01 1.67 0.02 1.34 -1 1 C-0.67 0.67 -0.34 0.34 0 0 Z " fill="#C4E6E8" transform="translate(910,103)"/>
<path d="M0 0 C0.66 0.33 1.32 0.66 2 1 C2.36923077 6.41538462 2.36923077 6.41538462 0.5 9.375 C0.005 9.91125 -0.49 10.4475 -1 11 C-1.99 10.67 -2.98 10.34 -4 10 C-3.25130208 8.27473958 -2.50260417 6.54947917 -1.75390625 4.82421875 C-1.10038058 3.24288979 -0.54108198 1.62324594 0 0 Z " fill="#CAE7EA" transform="translate(131,103)"/>
<path d="M0 0 C1.98 0.99 1.98 0.99 4 2 C4 5.3 4 8.6 4 12 C3.01 12 2.02 12 1 12 C0.67 8.04 0.34 4.08 0 0 Z " fill="#C9F0F3" transform="translate(277,137)"/>
<path d="M0 0 C1 3 1 3 0.22265625 4.82421875 C-0.8515625 6.54947917 -1.92578125 8.27473958 -3 10 C-3.99 9.67 -4.98 9.34 -6 9 C-4.47291037 5.56404834 -2.40072955 2.88087546 0 0 Z " fill="#C5E9EC" transform="translate(144,123)"/>
<path d="M0 0 C1.0625 1.875 1.0625 1.875 2 4 C1 6 1 6 -1 8 C-1.69748583 9.31747324 -2.36959957 10.64914193 -3 12 C-3.93050292 8.36257951 -4.30458505 6.62301488 -2.625 3.1875 C-1 1 -1 1 0 0 Z " fill="#C8E7EE" transform="translate(461,115)"/>
<path d="M0 0 C0.66 0.33 1.32 0.66 2 1 C1.835 1.598125 1.67 2.19625 1.5 2.8125 C0.8885876 5.11344336 0.8885876 5.11344336 1 8 C0.34 8 -0.32 8 -1 8 C-1.12375 8.639375 -1.2475 9.27875 -1.375 9.9375 C-1.58125 10.618125 -1.7875 11.29875 -2 12 C-2.99 12.495 -2.99 12.495 -4 13 C-3.67 11.02 -3.34 9.04 -3 7 C-2.34 7 -1.68 7 -1 7 C-1.33 6.01 -1.66 5.02 -2 4 C-1.0625 1.8125 -1.0625 1.8125 0 0 Z " fill="#B5DCE0" transform="translate(136,90)"/>
<path d="M0 0 C6.625 -0.125 6.625 -0.125 10 1 C11.6875 3.5625 11.6875 3.5625 13 6 C12.01 6 11.02 6 10 6 C10 5.34 10 4.68 10 4 C6.7 3.34 3.4 2.68 0 2 C0 1.34 0 0.68 0 0 Z " fill="#CFEBEB" transform="translate(462,94)"/>
<path d="M0 0 C0 2.31 0 4.62 0 7 C-0.66 6.67 -1.32 6.34 -2 6 C-2 4.68 -2 3.36 -2 2 C-4.64 2.33 -7.28 2.66 -10 3 C-10 2.34 -10 1.68 -10 1 C-6.59437148 0.22157062 -3.49234244 -0.09978121 0 0 Z " fill="#CBECEB" transform="translate(210,94)"/>
<path d="M0 0 C0.66 0.66 1.32 1.32 2 2 C1 3 1 3 -2.5625 3.0625 C-3.696875 3.041875 -4.83125 3.02125 -6 3 C-6 3.66 -6 4.32 -6 5 C-7.32 5 -8.64 5 -10 5 C-10 4.34 -10 3.68 -10 3 C-9.34 3 -8.68 3 -8 3 C-8 2.34 -8 1.68 -8 1 C-1.9453125 0.0234375 -1.9453125 0.0234375 0 0 Z " fill="#C9E7EB" transform="translate(92,65)"/>
<path d="M0 0 C2.0625 0.4375 2.0625 0.4375 4 1 C3 2 2 3 1 4 C0.30899447 5.99172182 -0.35902703 7.99161804 -1 10 C-1.99 10 -2.98 10 -4 10 C-3.52449439 8.51965236 -3.04448784 7.04074979 -2.5625 5.5625 C-2.29566406 4.73878906 -2.02882813 3.91507813 -1.75390625 3.06640625 C-1 1 -1 1 0 0 Z " fill="#CBECEF" transform="translate(694,60)"/>
<path d="M0 0 C1.39211215 4.17633644 -0.0464421 5.78960515 -1.9375 9.6875 C-2.50339844 10.86699219 -3.06929687 12.04648437 -3.65234375 13.26171875 C-4.09707031 14.16535156 -4.54179687 15.06898437 -5 16 C-5.66 14.68 -6.32 13.36 -7 12 C-6.34 12 -5.68 12 -5 12 C-4.731875 11.13375 -4.46375 10.2675 -4.1875 9.375 C-3.02888013 6.08208036 -1.61790161 3.08872125 0 0 Z " fill="#B9DDDD" transform="translate(167,50)"/>
<path d="M0 0 C0.33 0 0.66 0 1 0 C0.14285714 8.57142857 0.14285714 8.57142857 -2 12 C-2.66 12 -3.32 12 -4 12 C-3.67 9.69 -3.34 7.38 -3 5 C-2.34 5 -1.68 5 -1 5 C-0.67 3.35 -0.34 1.7 0 0 Z " fill="#CFEDEF" transform="translate(365,116)"/>
<path d="M0 0 C1.35158203 0.15275391 1.35158203 0.15275391 2.73046875 0.30859375 C3.41753906 0.39238281 4.10460937 0.47617188 4.8125 0.5625 C4.4825 1.2225 4.1525 1.8825 3.8125 2.5625 C-0.1475 2.5625 -4.1075 2.5625 -8.1875 2.5625 C-8.1875 1.9025 -8.1875 1.2425 -8.1875 0.5625 C-4.98734144 -0.50421952 -3.30205706 -0.38595472 0 0 Z " fill="#C9EAEB" transform="translate(817.1875,99.4375)"/>
<path d="M0 0 C0.33 0 0.66 0 1 0 C1 2.31 1 4.62 1 7 C1.66 7 2.32 7 3 7 C3.33 8.32 3.66 9.64 4 11 C2.125 10.875 2.125 10.875 0 10 C-1.375 7.1875 -1.375 7.1875 -2 4 C-1.125 1.625 -1.125 1.625 0 0 Z " fill="#CAF0F2" transform="translate(743,142)"/>
<path d="M0 0 C0.33 0 0.66 0 1 0 C0.25 6.625 0.25 6.625 -2 10 C-2.66 10 -3.32 10 -4 10 C-3.67 7.69 -3.34 5.38 -3 3 C-2.34 3 -1.68 3 -1 3 C-0.67 2.01 -0.34 1.02 0 0 Z " fill="#CBE8EA" transform="translate(317,115)"/>
<path d="M0 0 C3.3502463 3.81234923 5.16974789 7.33285711 7 12 C3.33663903 10.77887968 2.64957986 9.13279518 0.76953125 5.88671875 C0 4 0 4 0 0 Z " fill="#CCEBEC" transform="translate(837,113)"/>
<path d="M0 0 C0.99 0 1.98 0 3 0 C3.33 1.65 3.66 3.3 4 5 C3.01 5.33 2.02 5.66 1 6 C0.67 6.66 0.34 7.32 0 8 C-0.79953138 4.71303767 -1.09658936 3.28976808 0 0 Z " fill="#C4E7EB" transform="translate(761,112)"/>
<path d="M0 0 C2.475 0.495 2.475 0.495 5 1 C5.33 2.65 5.66 4.3 6 6 C5.01 6.66 4.02 7.32 3 8 C0 3.375 0 3.375 0 0 Z " fill="#C8ECEC" transform="translate(953,112)"/>
<path d="M0 0 C2.97 0.33 5.94 0.66 9 1 C9.33 2.32 9.66 3.64 10 5 C6.58978257 4.21302675 3.31114834 3.12880057 0 2 C0 1.34 0 0.68 0 0 Z " fill="#C6E9EB" transform="translate(502,94)"/>
<path d="M0 0 C0 0.66 0 1.32 0 2 C-0.99 2.495 -0.99 2.495 -2 3 C-2.65213292 5.02463255 -2.65213292 5.02463255 -3 7 C-3.66 6.67 -4.32 6.34 -5 6 C-6.67654729 6.27942455 -8.34608154 6.60828247 -10 7 C-3.24137931 0 -3.24137931 0 0 0 Z " fill="#B3D3DC" transform="translate(88,145)"/>
<path d="M0 0 C0.66 0 1.32 0 2 0 C0.85569823 3.87302138 -0.23320098 7.00263439 -3 10 C-3.66 10 -4.32 10 -5 10 C-3.85569823 6.12697862 -2.76679902 2.99736561 0 0 Z " fill="#CCE8ED" transform="translate(321,145)"/>
<path d="M0 0 C1.65 0 3.3 0 5 0 C4.01 0.495 4.01 0.495 3 1 C3.33 1.99 3.66 2.98 4 4 C4.03920815 5.99961564 4.04443347 8.00049364 4 10 C3.01 10 2.02 10 1 10 C1.020625 8.906875 1.04125 7.81375 1.0625 6.6875 C1.18544452 3.05615809 1.18544452 3.05615809 0 0 Z " fill="#BBDADF" transform="translate(754,131)"/>
<path d="M0 0 C2.64 0 5.28 0 8 0 C6 2 6 2 2.4375 2.5 C0.7359375 2.7475 0.7359375 2.7475 -1 3 C-1.33 3.66 -1.66 4.32 -2 5 C-2.66 4.67 -3.32 4.34 -4 4 C-4 3.34 -4 2.68 -4 2 C-2.68 2 -1.36 2 0 2 C0 1.34 0 0.68 0 0 Z " fill="#CBEAEB" transform="translate(167,98)"/>
<path d="M0 0 C0.99 0.33 1.98 0.66 3 1 C3 3.64 3 6.28 3 9 C2.67 9 2.34 9 2 9 C1.67 10.65 1.34 12.3 1 14 C0.67 14 0.34 14 0 14 C-0.19456705 12.04235617 -0.38044247 10.08384679 -0.5625 8.125 C-0.66691406 7.03445312 -0.77132812 5.94390625 -0.87890625 4.8203125 C-1 2 -1 2 0 0 Z " fill="#D4F1F3" transform="translate(666,76)"/>
<path d="M0 0 C3 1 3 1 5 4 C5.66 3.01 6.32 2.02 7 1 C7.66 1.33 8.32 1.66 9 2 C7.02 4.97 7.02 4.97 5 8 C2.27573689 5.64722731 1.1858237 3.37503669 0 0 Z " fill="#939393" transform="translate(968,227)"/>
<path d="M0 0 C0.33 0 0.66 0 1 0 C1 4.29 1 8.58 1 13 C0.34 13 -0.32 13 -1 13 C-2.0070238 7.96488101 -1.97387813 4.76052962 0 0 Z " fill="#C9EEF0" transform="translate(23,134)"/>
<path d="M0 0 C0.33 0.66 0.66 1.32 1 2 C-0.26953125 3.46484375 -1.5390625 4.9296875 -2.80859375 6.39453125 C-4.20871231 8.10712971 -4.20871231 8.10712971 -5 11 C-5.66 11 -6.32 11 -7 11 C-3.675 2.45 -3.675 2.45 0 0 Z " fill="#B8DBDF" transform="translate(30,121)"/>
<path d="M0 0 C1 3 1 3 0 6 C-1.32 5.67 -2.64 5.34 -4 5 C-4 4.34 -4 3.68 -4 3 C-4.66 2.67 -5.32 2.34 -6 2 C-4.02 1.34 -2.04 0.68 0 0 Z " fill="#C4E9EA" transform="translate(31,169)"/>
<path d="M0 0 C0.99 0.33 1.98 0.66 3 1 C2.1875 3.4375 2.1875 3.4375 1 6 C0.01 6.33 -0.98 6.66 -2 7 C-2 6.34 -2 5.68 -2 5 C-2.66 4.67 -3.32 4.34 -4 4 C-3.01 4 -2.02 4 -1 4 C-0.67 2.68 -0.34 1.36 0 0 Z " fill="#C4EBEF" transform="translate(462,148)"/>
<path d="M0 0 C1.08667969 0.29197266 1.08667969 0.29197266 2.1953125 0.58984375 C2.74960937 0.74582031 3.30390625 0.90179688 3.875 1.0625 C3.545 1.7225 3.215 2.3825 2.875 3.0625 C-3.27734375 2.4765625 -3.27734375 2.4765625 -5.125 2.0625 C-5.455 1.4025 -5.785 0.7425 -6.125 0.0625 C-3.57797384 -1.21101308 -2.6967055 -0.73941925 0 0 Z " fill="#B5DADE" transform="translate(259.125,139.9375)"/>
<path d="M0 0 C0.33 0 0.66 0 1 0 C0.67 2.97 0.34 5.94 0 9 C-1.32 9.33 -2.64 9.66 -4 10 C-2.66666667 6.66666667 -1.33333333 3.33333333 0 0 Z " fill="#C9E9EB" transform="translate(760,121)"/>
<path d="M0 0 C3.65316671 1.24976756 4.78065836 1.67098753 7 5 C7 5.99 7 6.98 7 8 C6.34 8 5.68 8 5 8 C3.98133771 6.34467377 2.98189187 4.67739862 2 3 C1.34 2.67 0.68 2.34 0 2 C0 1.34 0 0.68 0 0 Z " fill="#CDEBEC" transform="translate(175,99)"/>
<path d="M0 0 C0.66 1.32 1.32 2.64 2 4 C1.34 4 0.68 4 0 4 C-0.33 5.65 -0.66 7.3 -1 9 C-1.66 9 -2.32 9 -3 9 C-3 9.99 -3 10.98 -3 12 C-3.66 12 -4.32 12 -5 12 C-3.68938409 7.76570244 -2.05643741 3.92592596 0 0 Z " fill="#BBD3D7" transform="translate(337,64)"/>
<path d="M0 0 C0.99 0.33 1.98 0.66 3 1 C-0.75 6.875 -0.75 6.875 -3 8 C-2.45276317 4.62537285 -1.9451 2.91765 0 0 Z " fill="#C1E8EB" transform="translate(125,126)"/>
<path d="M0 0 C1.32 0.33 2.64 0.66 4 1 C2.625 2.5 2.625 2.5 1 4 C0.34 4 -0.32 4 -1 4 C-1 4.66 -1 5.32 -1 6 C-1.99 5.67 -2.98 5.34 -4 5 C-3.67 4.01 -3.34 3.02 -3 2 C-2.01 2 -1.02 2 0 2 C0 1.34 0 0.68 0 0 Z " fill="#CBEDEE" transform="translate(54,113)"/>
<path d="M0 0 C0.66 0.33 1.32 0.66 2 1 C2 3.97 2 6.94 2 10 C1.01 10.495 1.01 10.495 0 11 C-0.19406478 9.35492782 -0.38007935 7.70890406 -0.5625 6.0625 C-0.66691406 5.14597656 -0.77132813 4.22945313 -0.87890625 3.28515625 C-0.91886719 2.53105469 -0.95882813 1.77695313 -1 1 C-0.67 0.67 -0.34 0.34 0 0 Z " fill="#C9EDED" transform="translate(366,102)"/>
<path d="M0 0 C0.33 1.32 0.66 2.64 1 4 C0.34 4 -0.32 4 -1 4 C-1.33 6.31 -1.66 8.62 -2 11 C-2.66 9.68 -3.32 8.36 -4 7 C-3.34 6.01 -2.68 5.02 -2 4 C-2.66 3.67 -3.32 3.34 -4 3 C-3.01 2.67 -2.02 2.34 -1 2 C-0.67 1.34 -0.34 0.68 0 0 Z " fill="#C7E5EA" transform="translate(792,95)"/>
<path d="M0 0 C2.4375 1.1875 2.4375 1.1875 5 3 C5.8125 5.6875 5.8125 5.6875 6 8 C3.5625 7.375 3.5625 7.375 1 6 C0.1875 2.875 0.1875 2.875 0 0 Z " fill="#C7EAEB" transform="translate(394,97)"/>
<path d="M0 0 C0 0.66 0 1.32 0 2 C-2.90600261 3.25664978 -4.79604584 4 -8 4 C-8.33 4.66 -8.66 5.32 -9 6 C-9 5.34 -9 4.68 -9 4 C-9.66 3.67 -10.32 3.34 -11 3 C-9.73160474 2.49384702 -8.46016898 1.99530901 -7.1875 1.5 C-6.12595703 1.08234375 -6.12595703 1.08234375 -5.04296875 0.65625 C-3 0 -3 0 0 0 Z " fill="#B9DFE1" transform="translate(92,80)"/>
<path d="M0 0 C0.99 0.33 1.98 0.66 3 1 C2.67 1.66 2.34 2.32 2 3 C1.34 3 0.68 3 0 3 C-0.33 3.66 -0.66 4.32 -1 5 C-3.0625 5.625 -3.0625 5.625 -5 6 C-3.63016497 2.83884224 -3.0109362 2.0072908 0 0 Z " fill="#CBE5EC" transform="translate(440,111)"/>
<path d="M0 0 C0.66 0.33 1.32 0.66 2 1 C2.625 3.0625 2.625 3.0625 3 5 C2.34 5 1.68 5 1 5 C1 5.66 1 6.32 1 7 C0.01 7 -0.98 7 -2 7 C-1.125 1.125 -1.125 1.125 0 0 Z " fill="#B0D1DA" transform="translate(165,127)"/>
<path d="M0 0 C-0.66 1.32 -1.32 2.64 -2 4 C-3.65 3.67 -5.3 3.34 -7 3 C-4.49955934 -0.00052879 -4.2621484 0 0 0 Z " fill="#CEEBEE" transform="translate(230,124)"/>
<path d="M0 0 C0.66 0.66 1.32 1.32 2 2 C1.01 2.33 0.02 2.66 -1 3 C-0.67 2.01 -0.34 1.02 0 0 Z M-2 3 C-1.67 3.99 -1.34 4.98 -1 6 C-2.65 7.32 -4.3 8.64 -6 10 C-4.92598892 7.08482708 -4.22189824 5.22189824 -2 3 Z " fill="#BEDBDF" transform="translate(288,115)"/>
<path d="M0 0 C0.66 0 1.32 0 2 0 C2 2.64 2 5.28 2 8 C0.4375 6.8125 0.4375 6.8125 -1 5 C-0.6875 2.3125 -0.6875 2.3125 0 0 Z " fill="#C5ECEE" transform="translate(207,104)"/>
<path d="M0 0 C2.475 0.495 2.475 0.495 5 1 C5 2.98 5 4.96 5 7 C4.01 6.67 3.02 6.34 2 6 C2.33 4.68 2.66 3.36 3 2 C2.01 2 1.02 2 0 2 C0 1.34 0 0.68 0 0 Z " fill="#D3EEF2" transform="translate(290,96)"/>
<path d="M0 0 C0.66 0 1.32 0 2 0 C1.64950425 3.24208567 1.43778819 4.61527704 -1.0625 6.8125 C-1.701875 7.204375 -2.34125 7.59625 -3 8 C-3.33 7.01 -3.66 6.02 -4 5 C-2.68 4.34 -1.36 3.68 0 3 C0 2.01 0 1.02 0 0 Z " fill="#C4E7EA" transform="translate(151,84)"/>
<path d="M0 0 C1.25541557 3.76624671 0.37061958 5.37188934 -1 9 C-1.66 9 -2.32 9 -3 9 C-3.26218749 5.85375007 -3.24754367 4.38162983 -1.5 1.6875 C-1.005 1.130625 -0.51 0.57375 0 0 Z " fill="#C7E7ED" transform="translate(690,77)"/>
<path d="M0 0 C2.046875 3.71875 2.046875 3.71875 1.625 6.25 C1.41875 6.8275 1.2125 7.405 1 8 C0.34 8 -0.32 8 -1 8 C-1.33 8.99 -1.66 9.98 -2 11 C-3 9 -3 9 -2.44140625 6.8359375 C-2.15136719 6.02382812 -1.86132812 5.21171875 -1.5625 4.375 C-1.27503906 3.55773437 -0.98757813 2.74046875 -0.69140625 1.8984375 C-0.46324219 1.27195312 -0.23507812 0.64546875 0 0 Z " fill="#BEDADD" transform="translate(938,124)"/>
<path d="M0 0 C0.99 0.33 1.98 0.66 3 1 C2.01 2.485 2.01 2.485 1 4 C0.60612212 6.32387947 0.26513915 8.65793749 0 11 C-0.33 11 -0.66 11 -1 11 C-1.02688151 9.35425434 -1.04634123 7.70838587 -1.0625 6.0625 C-1.07410156 5.14597656 -1.08570313 4.22945313 -1.09765625 3.28515625 C-1 1 -1 1 0 0 Z " fill="#C8F0F0" transform="translate(665,102)"/>
<path d="M0 0 C1.65 0 3.3 0 5 0 C5 2.31 5 4.62 5 7 C4.01 7 3.02 7 2 7 C2.33 5.35 2.66 3.7 3 2 C2.01 1.34 1.02 0.68 0 0 Z " fill="#D1F2F4" transform="translate(755,96)"/>
<path d="M0 0 C-0.33 0.66 -0.66 1.32 -1 2 C-2.875 2.5625 -2.875 2.5625 -5 3 C-5.99 3.33 -6.98 3.66 -8 4 C-8.33 3.01 -8.66 2.02 -9 1 C-3.375 -1.125 -3.375 -1.125 0 0 Z " fill="#D1EDF0" transform="translate(750,97)"/>
<path d="M0 0 C0.99 0.33 1.98 0.66 3 1 C3 1.66 3 2.32 3 3 C3.66 3.33 4.32 3.66 5 4 C4.67 4.99 4.34 5.98 4 7 C3.34 7 2.68 7 2 7 C0.5393715 4.35261084 0 3.10551666 0 0 Z " fill="#B7DCE1" transform="translate(139,82)"/>
<path d="M0 0 C2.475 0.99 2.475 0.99 5 2 C4.67 3.65 4.34 5.3 4 7 C3.34 6.01 2.68 5.02 2 4 C1.34 4 0.68 4 0 4 C0 2.68 0 1.36 0 0 Z " fill="#CBEEEF" transform="translate(165,45)"/>
<path d="M0 0 C0.66 0.33 1.32 0.66 2 1 C-3.75 6 -3.75 6 -6 6 C-5 3 -5 3 -2.5625 1.25 C-1.716875 0.8375 -0.87125 0.425 0 0 Z " fill="#CAE6EC" transform="translate(95,152)"/>
<path d="M0 0 C0.66 0 1.32 0 2 0 C2.125 5.75 2.125 5.75 1 8 C0.34 8 -0.32 8 -1 8 C-0.67 5.36 -0.34 2.72 0 0 Z " fill="#C8E9EC" transform="translate(180,118)"/>
<path d="M0 0 C0.99 0.33 1.98 0.66 3 1 C2.67 2.32 2.34 3.64 2 5 C1.34 5 0.68 5 0 5 C-0.33 5.99 -0.66 6.98 -1 8 C-0.67 5.36 -0.34 2.72 0 0 Z " fill="#CCEBEE" transform="translate(431,112)"/>
<path d="M0 0 C0.99 0 1.98 0 3 0 C3 2.97 3 5.94 3 9 C2.67 7.68 2.34 6.36 2 5 C1.34 5 0.68 5 0 5 C0 3.35 0 1.7 0 0 Z " fill="#C5F1F5" transform="translate(181,108)"/>
<path d="M0 0 C0.66 0 1.32 0 2 0 C3.125 3.75 3.125 3.75 2 6 C0.68 5.34 -0.64 4.68 -2 4 C-1.34 2.68 -0.68 1.36 0 0 Z " fill="#C8E7ED" transform="translate(138,85)"/>
<path d="M0 0 C1.1875 1.6875 1.1875 1.6875 2 4 C0.6875 6.75 0.6875 6.75 -1 9 C-1.33 9 -1.66 9 -2 9 C-2 7.35 -2 5.7 -2 4 C-1.34 4 -0.68 4 0 4 C0 2.68 0 1.36 0 0 Z " fill="#D5EEEE" transform="translate(412,78)"/>
</svg>
